<svg class="h-1/6 w-1/6 fill-current text-white bg-black p-4 svg-tags"
                        xmlns="http://www.w3.org/2000/svg" viewBox="0 0 512 512">
                        <g>
                            <path
                                d="M435.2,256a76.8,76.8,0,1,0,0-153.6H417.6A76.5,76.5,0,0,0,296.7,48.7,127.8,127.8,0,0,0,71,102.8,76.7,76.7,0,0,0,76.9,256h145v34.1H179.3a42.7,42.7,0,0,0-42.7,42.7h0V443.7A25.8,25.8,0,0,1,111,469.3H67.2a34.2,34.2,0,1,0,0,17H111a42.8,42.8,0,0,0,42.7-42.6V332.8a25.6,25.6,0,0,1,25.6-25.6h42.6v51.2c0,11.3,10.4,19.6,25.6,25.2V494.9H221.9v17h34.2a8.5,8.5,0,0,0,8.5-8.5h0v-115a194.7,194.7,0,0,0,34.1,3.9v85.5a8.5,8.5,0,0,0,8.5,8.5h78a34.1,34.1,0,1,0,0-17H315.8v-77c38.5-1.3,76.8-12.1,76.8-33.9V341.3h25.6a8.5,8.5,0,0,1,8.5,8.5v68.3a8.5,8.5,0,0,0,8.5,8.5h42.7v-17H443.7V349.8a25.6,25.6,0,0,0-25.5-25.6H392.6V256ZM34.2,494.9a17.1,17.1,0,1,1,17.1-17.1,17.2,17.2,0,0,1-17.1,17.1Zm384-34.2a17.1,17.1,0,1,1-17.1,17.1,17.2,17.2,0,0,1,17.1-17.1ZM375.5,358.4c0,4.3-23.5,17-68.3,17s-68.2-12.7-68.2-17V328.7a160.9,160.9,0,0,0,68.2,12.6,161.7,161.7,0,0,0,68.3-12.6Zm0-51.2c0,4.3-23.5,17-68.3,17s-68.2-12.7-68.2-17V277.5a160.9,160.9,0,0,0,68.2,12.6,161.7,161.7,0,0,0,68.3-12.6Zm0-51.2c0,4.3-23.5,17.1-68.3,17.1S239,260.3,239,256V226.3a160.9,160.9,0,0,0,68.2,12.6,161.7,161.7,0,0,0,68.3-12.6Zm-68.3-34.1c-44.7,0-68.2-12.7-68.2-17.1s23.5-17.1,68.2-17.1,68.3,12.8,68.3,17.1S352,221.9,307.2,221.9Zm8.6-51V153.6A25.8,25.8,0,0,0,290.2,128H246.3a34.1,34.1,0,1,0,0,17.1h43.9a8.5,8.5,0,0,1,8.5,8.5h0v17.3c-38.5,1.3-76.8,12.1-76.8,33.9v34.1H76.9a59.7,59.7,0,0,1,0-119.4h1a60,60,0,0,1,58.7,59.7h17.1a77.1,77.1,0,0,0-65.5-75.8,110.9,110.9,0,0,1,216.5.9l16.6-3.7a122.7,122.7,0,0,0-15.1-37.8A59.7,59.7,0,0,1,388,148.3L401.3,159a76.9,76.9,0,0,0,16.3-39.5h17.6a59.7,59.7,0,0,1,0,119.4H392.6v-17h25.6a8.5,8.5,0,0,0,8.5-8.5h0V179.2h8.5v-17h-17a8.5,8.5,0,0,0-8.6,8.4h0v34.1h-17c0-21.8-38.3-32.6-76.8-33.9Zm-85.3-34.3a17.1,17.1,0,1,1-17.1-17.1,17.2,17.2,0,0,1,17.1,17.1Z">
                            </path>
                            <path d="M494.9,409.6H512v17H494.9Z"></path>
                            <path d="M187.8,494.9h17.1v17H187.8Z"></path>
                            <path
                                d="M51.3,179.2a25.6,25.6,0,0,1,25.6-25.6h0v-17a42.7,42.7,0,1,0-4.1,85.3h72.4V204.8H76.9a25.6,25.6,0,0,1-25.6-25.6Z">
                            </path>
                            <path d="M452.3,162.2h17v17h-17Z"></path>
                        </g>
                    </svg>