<svg>
<symbol xmlns="http://www.w3.org/2000/svg" width="40" height="15" viewBox="0 0 40 15" id='Arrow' fill="none"><path d="M1 7.49997H39M39 7.49997L32.5 0.999969M39 7.49997L32.5 14" stroke="white" stroke-linecap="round" stroke-linejoin="round"></path></symbol>
<symbol
                        xmlns="http://www.w3.org/2000/svg" viewBox="0 0 512 512" id='System_Approach'>
                        <g>
                            <path
                                d="M435.2,256a76.8,76.8,0,1,0,0-153.6H417.6A76.5,76.5,0,0,0,296.7,48.7,127.8,127.8,0,0,0,71,102.8,76.7,76.7,0,0,0,76.9,256h145v34.1H179.3a42.7,42.7,0,0,0-42.7,42.7h0V443.7A25.8,25.8,0,0,1,111,469.3H67.2a34.2,34.2,0,1,0,0,17H111a42.8,42.8,0,0,0,42.7-42.6V332.8a25.6,25.6,0,0,1,25.6-25.6h42.6v51.2c0,11.3,10.4,19.6,25.6,25.2V494.9H221.9v17h34.2a8.5,8.5,0,0,0,8.5-8.5h0v-115a194.7,194.7,0,0,0,34.1,3.9v85.5a8.5,8.5,0,0,0,8.5,8.5h78a34.1,34.1,0,1,0,0-17H315.8v-77c38.5-1.3,76.8-12.1,76.8-33.9V341.3h25.6a8.5,8.5,0,0,1,8.5,8.5v68.3a8.5,8.5,0,0,0,8.5,8.5h42.7v-17H443.7V349.8a25.6,25.6,0,0,0-25.5-25.6H392.6V256ZM34.2,494.9a17.1,17.1,0,1,1,17.1-17.1,17.2,17.2,0,0,1-17.1,17.1Zm384-34.2a17.1,17.1,0,1,1-17.1,17.1,17.2,17.2,0,0,1,17.1-17.1ZM375.5,358.4c0,4.3-23.5,17-68.3,17s-68.2-12.7-68.2-17V328.7a160.9,160.9,0,0,0,68.2,12.6,161.7,161.7,0,0,0,68.3-12.6Zm0-51.2c0,4.3-23.5,17-68.3,17s-68.2-12.7-68.2-17V277.5a160.9,160.9,0,0,0,68.2,12.6,161.7,161.7,0,0,0,68.3-12.6Zm0-51.2c0,4.3-23.5,17.1-68.3,17.1S239,260.3,239,256V226.3a160.9,160.9,0,0,0,68.2,12.6,161.7,161.7,0,0,0,68.3-12.6Zm-68.3-34.1c-44.7,0-68.2-12.7-68.2-17.1s23.5-17.1,68.2-17.1,68.3,12.8,68.3,17.1S352,221.9,307.2,221.9Zm8.6-51V153.6A25.8,25.8,0,0,0,290.2,128H246.3a34.1,34.1,0,1,0,0,17.1h43.9a8.5,8.5,0,0,1,8.5,8.5h0v17.3c-38.5,1.3-76.8,12.1-76.8,33.9v34.1H76.9a59.7,59.7,0,0,1,0-119.4h1a60,60,0,0,1,58.7,59.7h17.1a77.1,77.1,0,0,0-65.5-75.8,110.9,110.9,0,0,1,216.5.9l16.6-3.7a122.7,122.7,0,0,0-15.1-37.8A59.7,59.7,0,0,1,388,148.3L401.3,159a76.9,76.9,0,0,0,16.3-39.5h17.6a59.7,59.7,0,0,1,0,119.4H392.6v-17h25.6a8.5,8.5,0,0,0,8.5-8.5h0V179.2h8.5v-17h-17a8.5,8.5,0,0,0-8.6,8.4h0v34.1h-17c0-21.8-38.3-32.6-76.8-33.9Zm-85.3-34.3a17.1,17.1,0,1,1-17.1-17.1,17.2,17.2,0,0,1,17.1,17.1Z">
                            </path>
                            <path d="M494.9,409.6H512v17H494.9Z"></path>
                            <path d="M187.8,494.9h17.1v17H187.8Z"></path>
                            <path
                                d="M51.3,179.2a25.6,25.6,0,0,1,25.6-25.6h0v-17a42.7,42.7,0,1,0-4.1,85.3h72.4V204.8H76.9a25.6,25.6,0,0,1-25.6-25.6Z">
                            </path>
                            <path d="M452.3,162.2h17v17h-17Z"></path>
                        </g>
                    </symbol>
                     <symbol
                        xmlns="http://www.w3.org/2000/svg" viewBox="0 0 512 512" id='Work_on_Results'>
                        <title>analysis (3)</title>
                        <path
                            d="M509.1,93.9l-91-91A10.3,10.3,0,0,0,411,0H114A30.1,30.1,0,0,0,84,30V49.1a132.2,132.2,0,0,0-84,123,10,10,0,0,0,10,10H132.1a10,10,0,0,0,10-10V50a10,10,0,0,0-10-10A130.8,130.8,0,0,0,104,43V30a10,10,0,0,1,10-10H401V81a30.1,30.1,0,0,0,30,30h61V482a10,10,0,0,1-10,10H114a10,10,0,0,1-10-10V396.3a10,10,0,0,0-20,0V482a30.1,30.1,0,0,0,30,30H482a30.1,30.1,0,0,0,30-30V101A10.3,10.3,0,0,0,509.1,93.9Zm-387-33.5V162.1H20.4A112.3,112.3,0,0,1,122.1,60.4ZM431,91a10,10,0,0,1-10-10V34.1L477.9,91Z">
                        </path>
                        <path d="M101.1,352.9A10.1,10.1,0,1,0,104,360,10.5,10.5,0,0,0,101.1,352.9Z"></path>
                        <path
                            d="M167.9,75.8a10,10,0,0,0-10,10V197.9H45.8a10,10,0,0,0-10,10C35.8,280.7,95.1,340,167.9,340S300,280.7,300,207.9,240.7,75.8,167.9,75.8Zm10,20.5a111.3,111.3,0,0,1,61.8,25.6l-61.8,61.9ZM167.9,320A112.1,112.1,0,0,1,56.3,217.9H167.9A10,10,0,0,0,175,215h0l78.9-78.9a112,112,0,0,1-86,183.9Z">
                        </path>
                        <path
                            d="M438.1,315.6a30.1,30.1,0,0,0-27.7,41.7l-57.6,57.6a30,30,0,0,0-13.1-3,29.3,29.3,0,0,0-12.8,2.9l-38.2-38.3a30,30,0,1,0-58-10.9,29.8,29.8,0,0,0,2.8,12.6l-36.7,36.7a29.5,29.5,0,0,0-12.9-3,30,30,0,1,0,30,30A30.9,30.9,0,0,0,211,429l36.5-36.5a29.9,29.9,0,0,0,28-.8l37.2,37.2a29.6,29.6,0,0,0-3,13,30,30,0,1,0,57.2-12.8l57.1-57a30,30,0,1,0,14.1-56.5ZM183.9,451.9a10,10,0,1,1,6.9-17.2v.2h.2a10,10,0,0,1-7.2,16.9Zm76.8-76.3a10,10,0,1,1,10-10A10,10,0,0,1,260.7,375.6Zm79,76.3a10,10,0,1,1,10-10A10,10,0,0,1,339.7,451.9Zm98.4-96.3a10,10,0,1,1,10-10A10,10,0,0,1,438.1,355.6Z">
                        </path>
                        <path d="M388.1,235H335.3a10,10,0,1,0,0,20h52.8a10,10,0,0,0,0-20Z"></path>
                        <path
                            d="M440.7,237.9a10.3,10.3,0,0,0-7.1-2.9,10,10,0,1,0,0,20,10.3,10.3,0,0,0,7.1-2.9,10.1,10.1,0,0,0,0-14.2Z">
                        </path>
                        <path d="M457.5,139H335.3a10,10,0,0,0,0,20H457.5a10,10,0,0,0,0-20Z"></path>
                        <path d="M457.5,187H335.3a10,10,0,1,0,0,20H457.5a10,10,0,0,0,0-20Z"></path>
                    </symbol>
                    <symbol
                        xmlns="http://www.w3.org/2000/svg" viewBox="0 0 512 512" id='Smart_Planning'>
                        <title></title>
                        <path d="M203,376a10,10,0,1,1-10-10A10,10,0,0,1,203,376Z"></path>
                        <path d="M452,382H402V332a10,10,0,0,0-20,0v60a10,10,0,0,0,10,10h60a10,10,0,0,0,0-20Z">
                        </path>
                        <path d="M70,206h63a10,10,0,0,0,0-20H70a10,10,0,0,0,0,20Z"></path>
                        <path d="M256,186H193a10,10,0,0,0,0,20h63a10,10,0,0,0,0-20Z"></path>
                        <path d="M70,266h63a10,10,0,0,0,0-20H70a10,10,0,0,0,0,20Z"></path>
                        <path d="M153,366H70a10,10,0,0,0,0,20h83a10,10,0,0,0,0-20Z"></path>
                        <path d="M256,246H193a10,10,0,0,0,0,20h63a10,10,0,0,0,0-20Z"></path>
                        <path d="M70,326h63a10,10,0,0,0,0-20H70a10,10,0,0,0,0,20Z"></path>
                        <path d="M256,306H193a10,10,0,0,0,0,20h63a10,10,0,0,0,0-20Z"></path>
                        <path d="M316,206h60a10,10,0,0,0,0-20H316a10,10,0,0,0,0,20Z"></path>
                        <path
                            d="M446,284.8V70a30.2,30.2,0,0,0-30-30H386V30a30,30,0,0,0-60,0V40H243V30a30,30,0,0,0-60,0V40H100V30a30,30,0,0,0-60,0V40H30A30.2,30.2,0,0,0,0,70V396a30.2,30.2,0,0,0,30,30H276.9A120,120,0,1,0,446,284.8ZM346,30a10,10,0,0,1,20,0V70a10,10,0,0,1-20,0ZM203,30a10,10,0,0,1,20,0V70a10,10,0,0,1-20,0ZM60,30a10,10,0,0,1,20,0V70a10,10,0,0,1-20,0ZM30,60H40V70a30,30,0,0,0,60,0V60h83V70a30,30,0,0,0,60,0V60h83V70a30,30,0,0,0,60,0V60h30a10,10,0,0,1,10,10v53H20V70A10,10,0,0,1,30,60ZM20,396V143H426V276.9a118.5,118.5,0,0,0-34-4.9A120.1,120.1,0,0,0,272,392a129.9,129.9,0,0,0,.8,14H30A10,10,0,0,1,20,396Zm372,96c-53.6,0-100-43.7-100-100A100,100,0,1,1,392,492Z">
                        </path>
                    </symbol>
                    <symbol xmlns="http://www.w3.org/2000/svg" id='MoneyLogo' viewBox="0 0 512 512" style="user-select: auto;"><title style="user-select: auto;">money (2)</title><path d="M316.2,117.6h.6S316.3,116.4,316.2,117.6Z" style="user-select: auto;"></path><path d="M171.7,117.6h.6C172.2,116.4,171.7,117.6,171.7,117.6Z" style="user-select: auto;"></path><path d="M460.5,154.4a24.1,24.1,0,0,0-14.8-10.5l-32.4-7.4,15-4.2a23.7,23.7,0,1,0-12.8-45.6l-69.9,19.6a23.1,23.1,0,0,0-7.5-8.3c14.2-26.4,34.6-71.2,34.6-90.4a7.6,7.6,0,0,0-9-7.4,380.5,380.5,0,0,1-79,7.9C258.5,7.8,226,4.5,205.6.2a7.6,7.6,0,0,0-8.1,11.2,78.3,78.3,0,0,1,9.7,26C181.6,38.2,155,35,134.8,25A7.6,7.6,0,0,0,124,33c6.3,38,19.1,60.2,31.9,77.1h-.3a23.7,23.7,0,0,0-3.1,47.1c-8.4,14.2-20.5,27.6-33.2,41.7-26.9,30-57.5,63.9-67.8,118.8-4.9,26.2-4.8,50.8.5,73a134.7,134.7,0,0,0,27.7,55.7c17.9,21.6,42.5,38.4,73.2,49.8,27.6,10.3,59.2,15.8,91.4,15.8s63.8-5.5,91.4-15.8c30.6-11.4,55.2-28.2,73.1-49.8a134.9,134.9,0,0,0,27.8-55.7c5.2-22.2,5.4-46.8.5-73-10.3-54.9-40.9-88.8-67.9-118.8-9.1-10.2-17.8-19.9-25.1-29.7l91,20.9a23.7,23.7,0,0,0,25.4-35.7ZM284.5,23.2A389.1,389.1,0,0,0,356.2,17c-4.6,18.6-19.2,51.8-33.1,77a23.6,23.6,0,0,0-20.7,16.1H281.5l-1.6-3.4c-6.5-13.8-20-42.5-20-66.9a7.6,7.6,0,0,0-9-7.4,284.9,284.9,0,0,1-28.6,4.1,99.6,99.6,0,0,0-5-18.9A508.9,508.9,0,0,0,284.5,23.2Zm48.9,94.4v32.3a8.6,8.6,0,0,1-17.1,0V117.6a8.6,8.6,0,0,1,17.1,0ZM141.6,44.1c18.9,6.5,42.1,9.3,67.2,8.4l15-.9c7.1-.7,14.2-1.6,21.5-2.8,2.3,23.4,13,47.4,19.5,61.3H175.2l-.6-.8C162,94.1,149.2,76.5,141.6,44.1ZM358,209c25.6,28.5,54.7,60.8,64.2,111.5,8.8,46.6.3,85.8-25,116.3-31.2,37.6-88.4,60.1-152.9,60.1s-121.7-22.5-153-60.1c-25.3-30.5-33.7-69.7-25-116.3,9.6-50.7,38.6-83,64.3-111.5,15.3-17,29.8-33.2,39.1-51.6h18.4a7.6,7.6,0,1,0,0-15.1H155.6a8.6,8.6,0,0,1,0-17.1H301.2v17.1H224.1a7.6,7.6,0,0,0,0,15.1h78.3a23.8,23.8,0,0,0,22.5,16.1l3.5-.2C336.8,185.5,347.1,196.9,358,209Zm-9.5-87.9,71.1-19.9a8.6,8.6,0,0,1,10.5,6,8.5,8.5,0,0,1-5.9,10.5l-40.6,11.4-1,.3-34.1-7.8v-.5Zm100.3,47.8a8.7,8.7,0,0,1-10.3,6.5l-90.4-20.8a25.2,25.2,0,0,0,.4-4.8V137.1l93.9,21.6A8.6,8.6,0,0,1,448.8,168.9Z" style="user-select: auto;"></path><path d="M292.6,310.5a19.7,19.7,0,0,0,19.7-19.6V278.8a56,56,0,0,0-48.4-55.4V210.3a19.7,19.7,0,1,0-39.3,0v14.1a62,62,0,0,0,13.6,122.4h12.1a22.7,22.7,0,1,1,0,45.3H232.2a16.6,16.6,0,0,1-16.6-16.6,19.7,19.7,0,0,0-39.3,0,56,56,0,0,0,48.3,55.4V444a19.7,19.7,0,0,0,39.3,0V429.9a62,62,0,0,0-13.6-122.4H238.2a22.7,22.7,0,0,1,0-45.3h18.2A16.6,16.6,0,0,1,273,278.8v12.1A19.6,19.6,0,0,0,292.6,310.5Zm-36.2-63.4H238.2a37.8,37.8,0,0,0,0,75.5h12.1a46.8,46.8,0,0,1,5.2,93.4,7.6,7.6,0,0,0-6.7,7.5V444a4.5,4.5,0,0,1-4.5,4.5,4.6,4.6,0,0,1-4.6-4.5V423.9a7.5,7.5,0,0,0-7.5-7.6,40.8,40.8,0,0,1-40.8-40.8,4.5,4.5,0,0,1,4.5-4.5,4.6,4.6,0,0,1,4.6,4.5,31.7,31.7,0,0,0,31.7,31.7h18.1a37.8,37.8,0,1,0,0-75.5H238.2a46.8,46.8,0,0,1-5.2-93.4,7.5,7.5,0,0,0,6.7-7.5V210.3a4.6,4.6,0,0,1,4.6-4.5,4.5,4.5,0,0,1,4.5,4.5v20.1a7.6,7.6,0,0,0,7.6,7.6,40.8,40.8,0,0,1,40.8,40.8v12.1a4.6,4.6,0,0,1-4.6,4.5,4.5,4.5,0,0,1-4.5-4.5V278.8A31.7,31.7,0,0,0,256.4,247.1Z" style="user-select: auto;"></path></symbol>
                    <symbol xmlns="http://www.w3.org/2000/svg" viewBox="0 0 512 512" id="Optimization" style="user-select: auto;"><title style="user-select: auto;">work</title><path d="M477,444.5a41.8,41.8,0,0,0,9.4-26.4v-17a42.7,42.7,0,1,0-85.3,0v17a41.8,41.8,0,0,0,9.4,26.4A42.7,42.7,0,0,0,384,461.1a42.7,42.7,0,0,0-26.5-16.6,41.8,41.8,0,0,0,9.4-26.4v-17a42.7,42.7,0,1,0-85.3,0v17a41.8,41.8,0,0,0,9.4,26.4,42.7,42.7,0,0,0-26.5,16.6,42.5,42.5,0,0,0-26.4-16.6,43,43,0,0,0,9.4-26.4v-17a42.7,42.7,0,1,0-85.4,0v17a43,43,0,0,0,9.4,26.4,42.8,42.8,0,0,0-35,41.9V512h17.1V486.4a25.6,25.6,0,0,1,25.6-25.6h51.2A25.6,25.6,0,0,1,256,486.4V512h17.1V486.4a25.6,25.6,0,0,1,25.6-25.6h51.2a25.6,25.6,0,0,1,25.6,25.6V512h17V486.4a25.6,25.6,0,0,1,25.6-25.6h51.2a25.6,25.6,0,0,1,25.6,25.6V512H512V486.4A42.7,42.7,0,0,0,477,444.5ZM230.4,418.1a25.6,25.6,0,1,1-51.2,0v-17a25.6,25.6,0,1,1,51.2,0Zm119.5,0a25.6,25.6,0,1,1-51.2,0v-17a25.6,25.6,0,1,1,51.2,0Zm119.4,0a25.6,25.6,0,1,1-51.2,0v-17a25.6,25.6,0,0,1,51.2,0Z" style="user-select: auto;"></path><path d="M207.9,171.3a8.1,8.1,0,0,0-3.1-.6H170.7a8.6,8.6,0,0,0-8.1,5.6l-9,24.9-.3-.9a45.2,45.2,0,0,0-42.4-29.6h-.2a42.6,42.6,0,0,0,8.8-25.6V128a42.7,42.7,0,0,0-85.4,0v17.1a42.6,42.6,0,0,0,8.8,25.6h-.2A42.7,42.7,0,0,0,0,213.3V315.7a8.6,8.6,0,0,0,8.5,8.6H34.1V407L18.5,430.5a8.4,8.4,0,0,0,2.4,11.8,8.6,8.6,0,0,0,4.7,1.4H128a8.5,8.5,0,0,0,8.5-8.5,8.6,8.6,0,0,0-1.4-4.7L119.5,407V249.5l2.1,4.2a34.9,34.9,0,0,0,63.6-2.6l13.9-34.6,13.6-34.2A8.4,8.4,0,0,0,207.9,171.3ZM51.2,128a25.6,25.6,0,0,1,51.2,0v17.1a25.6,25.6,0,0,1-51.2,0ZM34.1,307.2h-17V290.1h17ZM85.3,426.7V324.3h-17V426.7H41.5l8.3-12.4a8.6,8.6,0,0,0,1.4-4.7V307.2h51.2V409.6a8.6,8.6,0,0,0,1.4,4.7l8.3,12.4Zm84.1-181.9a17.9,17.9,0,0,1-23.2,9.9,17.2,17.2,0,0,1-9.3-8.5l-18.3-36.7a8.5,8.5,0,0,0-16.2,3.8v76.8H51.2V213.3a8.5,8.5,0,0,0-8.5-8.5,8.6,8.6,0,0,0-8.6,8.5v59.8h-17V213.3a25.6,25.6,0,0,1,25.6-25.6H68.3v85.4h17V187.7h25.6a28.3,28.3,0,0,1,26.4,18.5l8.3,22.9a8.5,8.5,0,0,0,16,0l2.6-7.2h14.3Zm16-40h-15l6.2-17.1h15.6Z" style="user-select: auto;"></path><path d="M503.5,51.2a8.5,8.5,0,0,0,8.5-8.5V8.5A8.5,8.5,0,0,0,503.5,0H145.1a8.6,8.6,0,0,0-8.6,8.5V42.7a8.6,8.6,0,0,0,8.6,8.5h8.5V153.6h17.1V51.2H477.9V238.9H204.8V256H315.7v37.7l-55.4,31.7,8.4,14.8,47-26.8v27.9h17.1V313.4l46.9,26.8,8.5-14.8-55.4-31.7V256H512V238.9H494.9V51.2ZM153.6,34.1v-17H494.9v17Z" style="user-select: auto;"></path><path d="M420.2,94.1l-34.1-8.5-4.2,16.5,16,4-64.8,45.4-37.6-30.2a8.6,8.6,0,0,0-10.3-.2l-59.8,42.6,10,13.9,54.4-38.9,37.7,30.1a8.4,8.4,0,0,0,10.2.3l71.9-50.3v17.7h17.1V102.4A8.6,8.6,0,0,0,420.2,94.1Z" style="user-select: auto;"></path></symbol>

                    <symbol xmlns="http://www.w3.org/2000/svg" viewBox="0 0 512 512" id='StrategicControl' style="user-select: auto;"><title style="user-select: auto;"></title><path d="M203,376a10,10,0,1,1-10-10A10,10,0,0,1,203,376Z" style="user-select: auto;"></path><path d="M452,382H402V332a10,10,0,0,0-20,0v60a10,10,0,0,0,10,10h60a10,10,0,0,0,0-20Z" style="user-select: auto;"></path><path d="M70,206h63a10,10,0,0,0,0-20H70a10,10,0,0,0,0,20Z" style="user-select: auto;"></path><path d="M256,186H193a10,10,0,0,0,0,20h63a10,10,0,0,0,0-20Z" style="user-select: auto;"></path><path d="M70,266h63a10,10,0,0,0,0-20H70a10,10,0,0,0,0,20Z" style="user-select: auto;"></path><path d="M153,366H70a10,10,0,0,0,0,20h83a10,10,0,0,0,0-20Z" style="user-select: auto;"></path><path d="M256,246H193a10,10,0,0,0,0,20h63a10,10,0,0,0,0-20Z" style="user-select: auto;"></path><path d="M70,326h63a10,10,0,0,0,0-20H70a10,10,0,0,0,0,20Z" style="user-select: auto;"></path><path d="M256,306H193a10,10,0,0,0,0,20h63a10,10,0,0,0,0-20Z" style="user-select: auto;"></path><path d="M316,206h60a10,10,0,0,0,0-20H316a10,10,0,0,0,0,20Z" style="user-select: auto;"></path><path d="M446,284.8V70a30.2,30.2,0,0,0-30-30H386V30a30,30,0,0,0-60,0V40H243V30a30,30,0,0,0-60,0V40H100V30a30,30,0,0,0-60,0V40H30A30.2,30.2,0,0,0,0,70V396a30.2,30.2,0,0,0,30,30H276.9A120,120,0,1,0,446,284.8ZM346,30a10,10,0,0,1,20,0V70a10,10,0,0,1-20,0ZM203,30a10,10,0,0,1,20,0V70a10,10,0,0,1-20,0ZM60,30a10,10,0,0,1,20,0V70a10,10,0,0,1-20,0ZM30,60H40V70a30,30,0,0,0,60,0V60h83V70a30,30,0,0,0,60,0V60h83V70a30,30,0,0,0,60,0V60h30a10,10,0,0,1,10,10v53H20V70A10,10,0,0,1,30,60ZM20,396V143H426V276.9a118.5,118.5,0,0,0-34-4.9A120.1,120.1,0,0,0,272,392a129.9,129.9,0,0,0,.8,14H30A10,10,0,0,1,20,396Zm372,96c-53.6,0-100-43.7-100-100A100,100,0,1,1,392,492Z" style="user-select: auto;"></path></symbol>


<symbol xmlns="http://www.w3.org/2000/svg" viewBox="0 0 512 512" id='SuitablePersonnel' style="user-select: auto;"><title style="user-select: auto;">auditor</title><path d="M392.5,85.3A119.5,119.5,0,0,0,341.3,97a145.2,145.2,0,0,0-33.8-54A143.4,143.4,0,0,0,204.8,0,146,146,0,0,0,59.7,146.5v24.1c0,20.9,0,34.7,9,52.7a36.7,36.7,0,0,0,23.4,19.6,113.2,113.2,0,0,0,53,89.5V342a46.5,46.5,0,0,0-30.3,16.2h-3.9A111.1,111.1,0,0,0,0,469.3v25.6A17,17,0,0,0,17.1,512H392.5a34.2,34.2,0,0,0,34.2-34.1V358.4a17.1,17.1,0,0,0-8.6-14.7V321.4A119.5,119.5,0,0,0,392.5,85.3ZM204.8,17.1A126.3,126.3,0,0,1,295.3,55a128.1,128.1,0,0,1,30.9,50.5,121.8,121.8,0,0,0-18.4,15.2,87.5,87.5,0,0,0-53.7-43,24.1,24.1,0,0,0-19.9,3c-29.9,20-87.4,31.3-116.9,32.6a24.7,24.7,0,0,0-23.4,24.8v9.8l-1.6-.6a24.9,24.9,0,0,0-15.5-.2v-.6A128.8,128.8,0,0,1,204.8,17.1ZM109.1,241.7A16.8,16.8,0,0,0,97,226.6a20.1,20.1,0,0,1-13.1-10.9c-7.1-14.4-7.1-24.7-7.1-45.1a7.6,7.6,0,0,1,3-6.4,7.5,7.5,0,0,1,6.8-.9c5.9,2.2,7.3,12.9,7.3,16.5a8.5,8.5,0,0,0,17,0h0V138.1a7.8,7.8,0,0,1,7.2-7.8c32.3-1.4,92.6-13.3,125.5-35.4a7.5,7.5,0,0,1,6.2-.7,67.4,67.4,0,0,1,45.5,41.4,119,119,0,0,0-1.7,136.2,95.8,95.8,0,0,1-88.8,60.9,94.6,94.6,0,0,1-67.7-28.4A97.8,97.8,0,0,1,109.1,241.7Zm95.7,150.7a37.7,37.7,0,0,1,26.7,12.3L218.3,418h-27l-13.2-13.2A38.4,38.4,0,0,1,204.8,392.4ZM261,358.7A30.4,30.4,0,0,1,281.5,369c-1.3,18.4-18.7,31-29.2,37l-1.8-3.2a5.3,5.3,0,0,0-.6-1,49.8,49.8,0,0,0-17.4-18.2A66.8,66.8,0,0,0,261,358.7Zm-21.4,62.1a8.6,8.6,0,0,0,4,4.8,8.5,8.5,0,0,0,3.8.9,8.7,8.7,0,0,0,3.2-.6,101.9,101.9,0,0,0,27.5-17.5c-4.6,29.6-14.4,63.7-33.6,80.6l-13.2-59.8Zm-80.7,5.1a8.2,8.2,0,0,0,11.1-5.1l8.4,8.4-13.7,61.3c-19.6-14.2-29.4-50.8-33.7-82.5a100.5,100.5,0,0,0,28,17.9Zm35.7,9.1H215l13.3,59.9h-47Zm103.8-59.7h.3a93.2,93.2,0,0,1,59.7,21.6v81a33.7,33.7,0,0,0,4.7,17H262.8c29.3-33.7,34.7-96.6,35.6-119.6Zm68.5-31.6a17,17,0,0,0-8.5,14.7v17.4a111.9,111.9,0,0,0-59.7-17.6h-3.9A46.5,46.5,0,0,0,264.5,342v-9.6a113.1,113.1,0,0,0,41.2-45.8,119.1,119.1,0,0,0,61.2,34.8Zm-162.1,6a110.2,110.2,0,0,0,42.7-8.4V348c-2.1,4.3-11.8,20.4-42.7,27.1-31.1-6.8-40.7-22.9-42.7-27.1v-6.7A110.2,110.2,0,0,0,204.8,349.7Zm-56.2,9A67.1,67.1,0,0,0,177,383.6a50.6,50.6,0,0,0-17.4,18.2l-.6,1a32.4,32.4,0,0,0-1.7,3.2c-10.6-6-28-18.6-29.2-37.1A30.5,30.5,0,0,1,148.6,358.7ZM17.1,469.3a94,94,0,0,1,93.8-94h.2c.9,23.3,5.9,87.5,33.5,119.6H17.1Zm392.5,8.6a17.1,17.1,0,0,1-34.1,0V358.4h34.1Zm-8.5-136.6H384V323.8c2.8.2,5.6.5,8.5.5s5.7-.3,8.6-.5Zm-8.6-34.1A102.4,102.4,0,1,1,494.9,204.8,102.4,102.4,0,0,1,392.5,307.2Z" style="user-select: auto;"></path><path d="M392.5,119.5a8.5,8.5,0,0,0,0,17,68.4,68.4,0,1,1-37.9,11.6,8.5,8.5,0,1,0-9.5-14.2h0a85.4,85.4,0,1,0,47.4-14.4Z" style="user-select: auto;"></path><path d="M366.9,187.7a8.6,8.6,0,0,0,6.1-2.5l8.5-8.5a8.6,8.6,0,0,0-12.1-12.1l-8.5,8.6a8.5,8.5,0,0,0,6,14.5Z" style="user-select: auto;"></path><path d="M369.4,236.4a8.5,8.5,0,0,0,12.1,0l51.2-51.2a8.4,8.4,0,0,0-.2-12,8.6,8.6,0,0,0-11.9,0l-51.2,51.2A8.5,8.5,0,0,0,369.4,236.4Z" style="user-select: auto;"></path></symbol>
<symbol xmlns="http://www.w3.org/2000/svg" width="14" height="16" viewBox="0 0 14 16" id='PlayButton' style="user-select: auto;"><path d="M12.8594 7.1738L2.54688 1.08005C1.69727 0.582001 0.4375 1.08005 0.4375 2.28122V14.4687C0.4375 15.582 1.60938 16.2558 2.54688 15.6992L12.8594 9.60544C13.7676 9.0488 13.7676 7.73044 12.8594 7.1738Z" style="user-select: auto;"></path></symbol>
                </svg>