<svg>
<symbol xmlns="http://www.w3.org/2000/svg" width="40" height="15" viewBox="0 0 40 15" id='Arrow' fill="none"><path d="M1 7.49997H39M39 7.49997L32.5 0.999969M39 7.49997L32.5 14" stroke="white" stroke-linecap="round" stroke-linejoin="round"></path></symbol>
<symbol
                        xmlns="http://www.w3.org/2000/svg" viewBox="0 0 512 512" id='System_Approach'>
                        <g>
                            <path
                                d="M435.2,256a76.8,76.8,0,1,0,0-153.6H417.6A76.5,76.5,0,0,0,296.7,48.7,127.8,127.8,0,0,0,71,102.8,76.7,76.7,0,0,0,76.9,256h145v34.1H179.3a42.7,42.7,0,0,0-42.7,42.7h0V443.7A25.8,25.8,0,0,1,111,469.3H67.2a34.2,34.2,0,1,0,0,17H111a42.8,42.8,0,0,0,42.7-42.6V332.8a25.6,25.6,0,0,1,25.6-25.6h42.6v51.2c0,11.3,10.4,19.6,25.6,25.2V494.9H221.9v17h34.2a8.5,8.5,0,0,0,8.5-8.5h0v-115a194.7,194.7,0,0,0,34.1,3.9v85.5a8.5,8.5,0,0,0,8.5,8.5h78a34.1,34.1,0,1,0,0-17H315.8v-77c38.5-1.3,76.8-12.1,76.8-33.9V341.3h25.6a8.5,8.5,0,0,1,8.5,8.5v68.3a8.5,8.5,0,0,0,8.5,8.5h42.7v-17H443.7V349.8a25.6,25.6,0,0,0-25.5-25.6H392.6V256ZM34.2,494.9a17.1,17.1,0,1,1,17.1-17.1,17.2,17.2,0,0,1-17.1,17.1Zm384-34.2a17.1,17.1,0,1,1-17.1,17.1,17.2,17.2,0,0,1,17.1-17.1ZM375.5,358.4c0,4.3-23.5,17-68.3,17s-68.2-12.7-68.2-17V328.7a160.9,160.9,0,0,0,68.2,12.6,161.7,161.7,0,0,0,68.3-12.6Zm0-51.2c0,4.3-23.5,17-68.3,17s-68.2-12.7-68.2-17V277.5a160.9,160.9,0,0,0,68.2,12.6,161.7,161.7,0,0,0,68.3-12.6Zm0-51.2c0,4.3-23.5,17.1-68.3,17.1S239,260.3,239,256V226.3a160.9,160.9,0,0,0,68.2,12.6,161.7,161.7,0,0,0,68.3-12.6Zm-68.3-34.1c-44.7,0-68.2-12.7-68.2-17.1s23.5-17.1,68.2-17.1,68.3,12.8,68.3,17.1S352,221.9,307.2,221.9Zm8.6-51V153.6A25.8,25.8,0,0,0,290.2,128H246.3a34.1,34.1,0,1,0,0,17.1h43.9a8.5,8.5,0,0,1,8.5,8.5h0v17.3c-38.5,1.3-76.8,12.1-76.8,33.9v34.1H76.9a59.7,59.7,0,0,1,0-119.4h1a60,60,0,0,1,58.7,59.7h17.1a77.1,77.1,0,0,0-65.5-75.8,110.9,110.9,0,0,1,216.5.9l16.6-3.7a122.7,122.7,0,0,0-15.1-37.8A59.7,59.7,0,0,1,388,148.3L401.3,159a76.9,76.9,0,0,0,16.3-39.5h17.6a59.7,59.7,0,0,1,0,119.4H392.6v-17h25.6a8.5,8.5,0,0,0,8.5-8.5h0V179.2h8.5v-17h-17a8.5,8.5,0,0,0-8.6,8.4h0v34.1h-17c0-21.8-38.3-32.6-76.8-33.9Zm-85.3-34.3a17.1,17.1,0,1,1-17.1-17.1,17.2,17.2,0,0,1,17.1,17.1Z">
                            </path>
                            <path d="M494.9,409.6H512v17H494.9Z"></path>
                            <path d="M187.8,494.9h17.1v17H187.8Z"></path>
                            <path
                                d="M51.3,179.2a25.6,25.6,0,0,1,25.6-25.6h0v-17a42.7,42.7,0,1,0-4.1,85.3h72.4V204.8H76.9a25.6,25.6,0,0,1-25.6-25.6Z">
                            </path>
                            <path d="M452.3,162.2h17v17h-17Z"></path>
                        </g>
                    </symbol>
                     <symbol
                        xmlns="http://www.w3.org/2000/svg" viewBox="0 0 512 512" id='Work_on_Results'>
                        <title>analysis (3)</title>
                        <path
                            d="M509.1,93.9l-91-91A10.3,10.3,0,0,0,411,0H114A30.1,30.1,0,0,0,84,30V49.1a132.2,132.2,0,0,0-84,123,10,10,0,0,0,10,10H132.1a10,10,0,0,0,10-10V50a10,10,0,0,0-10-10A130.8,130.8,0,0,0,104,43V30a10,10,0,0,1,10-10H401V81a30.1,30.1,0,0,0,30,30h61V482a10,10,0,0,1-10,10H114a10,10,0,0,1-10-10V396.3a10,10,0,0,0-20,0V482a30.1,30.1,0,0,0,30,30H482a30.1,30.1,0,0,0,30-30V101A10.3,10.3,0,0,0,509.1,93.9Zm-387-33.5V162.1H20.4A112.3,112.3,0,0,1,122.1,60.4ZM431,91a10,10,0,0,1-10-10V34.1L477.9,91Z">
                        </path>
                        <path d="M101.1,352.9A10.1,10.1,0,1,0,104,360,10.5,10.5,0,0,0,101.1,352.9Z"></path>
                        <path
                            d="M167.9,75.8a10,10,0,0,0-10,10V197.9H45.8a10,10,0,0,0-10,10C35.8,280.7,95.1,340,167.9,340S300,280.7,300,207.9,240.7,75.8,167.9,75.8Zm10,20.5a111.3,111.3,0,0,1,61.8,25.6l-61.8,61.9ZM167.9,320A112.1,112.1,0,0,1,56.3,217.9H167.9A10,10,0,0,0,175,215h0l78.9-78.9a112,112,0,0,1-86,183.9Z">
                        </path>
                        <path
                            d="M438.1,315.6a30.1,30.1,0,0,0-27.7,41.7l-57.6,57.6a30,30,0,0,0-13.1-3,29.3,29.3,0,0,0-12.8,2.9l-38.2-38.3a30,30,0,1,0-58-10.9,29.8,29.8,0,0,0,2.8,12.6l-36.7,36.7a29.5,29.5,0,0,0-12.9-3,30,30,0,1,0,30,30A30.9,30.9,0,0,0,211,429l36.5-36.5a29.9,29.9,0,0,0,28-.8l37.2,37.2a29.6,29.6,0,0,0-3,13,30,30,0,1,0,57.2-12.8l57.1-57a30,30,0,1,0,14.1-56.5ZM183.9,451.9a10,10,0,1,1,6.9-17.2v.2h.2a10,10,0,0,1-7.2,16.9Zm76.8-76.3a10,10,0,1,1,10-10A10,10,0,0,1,260.7,375.6Zm79,76.3a10,10,0,1,1,10-10A10,10,0,0,1,339.7,451.9Zm98.4-96.3a10,10,0,1,1,10-10A10,10,0,0,1,438.1,355.6Z">
                        </path>
                        <path d="M388.1,235H335.3a10,10,0,1,0,0,20h52.8a10,10,0,0,0,0-20Z"></path>
                        <path
                            d="M440.7,237.9a10.3,10.3,0,0,0-7.1-2.9,10,10,0,1,0,0,20,10.3,10.3,0,0,0,7.1-2.9,10.1,10.1,0,0,0,0-14.2Z">
                        </path>
                        <path d="M457.5,139H335.3a10,10,0,0,0,0,20H457.5a10,10,0,0,0,0-20Z"></path>
                        <path d="M457.5,187H335.3a10,10,0,1,0,0,20H457.5a10,10,0,0,0,0-20Z"></path>
                    </symbol>
                    <symbol
                        xmlns="http://www.w3.org/2000/svg" viewBox="0 0 512 512" id='Smart_Planning'>
                        <title></title>
                        <path d="M203,376a10,10,0,1,1-10-10A10,10,0,0,1,203,376Z"></path>
                        <path d="M452,382H402V332a10,10,0,0,0-20,0v60a10,10,0,0,0,10,10h60a10,10,0,0,0,0-20Z">
                        </path>
                        <path d="M70,206h63a10,10,0,0,0,0-20H70a10,10,0,0,0,0,20Z"></path>
                        <path d="M256,186H193a10,10,0,0,0,0,20h63a10,10,0,0,0,0-20Z"></path>
                        <path d="M70,266h63a10,10,0,0,0,0-20H70a10,10,0,0,0,0,20Z"></path>
                        <path d="M153,366H70a10,10,0,0,0,0,20h83a10,10,0,0,0,0-20Z"></path>
                        <path d="M256,246H193a10,10,0,0,0,0,20h63a10,10,0,0,0,0-20Z"></path>
                        <path d="M70,326h63a10,10,0,0,0,0-20H70a10,10,0,0,0,0,20Z"></path>
                        <path d="M256,306H193a10,10,0,0,0,0,20h63a10,10,0,0,0,0-20Z"></path>
                        <path d="M316,206h60a10,10,0,0,0,0-20H316a10,10,0,0,0,0,20Z"></path>
                        <path
                            d="M446,284.8V70a30.2,30.2,0,0,0-30-30H386V30a30,30,0,0,0-60,0V40H243V30a30,30,0,0,0-60,0V40H100V30a30,30,0,0,0-60,0V40H30A30.2,30.2,0,0,0,0,70V396a30.2,30.2,0,0,0,30,30H276.9A120,120,0,1,0,446,284.8ZM346,30a10,10,0,0,1,20,0V70a10,10,0,0,1-20,0ZM203,30a10,10,0,0,1,20,0V70a10,10,0,0,1-20,0ZM60,30a10,10,0,0,1,20,0V70a10,10,0,0,1-20,0ZM30,60H40V70a30,30,0,0,0,60,0V60h83V70a30,30,0,0,0,60,0V60h83V70a30,30,0,0,0,60,0V60h30a10,10,0,0,1,10,10v53H20V70A10,10,0,0,1,30,60ZM20,396V143H426V276.9a118.5,118.5,0,0,0-34-4.9A120.1,120.1,0,0,0,272,392a129.9,129.9,0,0,0,.8,14H30A10,10,0,0,1,20,396Zm372,96c-53.6,0-100-43.7-100-100A100,100,0,1,1,392,492Z">
                        </path>
                    </symbol>
                    <symbol xmlns="http://www.w3.org/2000/svg" id='MoneyLogo' viewBox="0 0 512 512" style="user-select: auto;"><title style="user-select: auto;">money (2)</title><path d="M316.2,117.6h.6S316.3,116.4,316.2,117.6Z" style="user-select: auto;"></path><path d="M171.7,117.6h.6C172.2,116.4,171.7,117.6,171.7,117.6Z" style="user-select: auto;"></path><path d="M460.5,154.4a24.1,24.1,0,0,0-14.8-10.5l-32.4-7.4,15-4.2a23.7,23.7,0,1,0-12.8-45.6l-69.9,19.6a23.1,23.1,0,0,0-7.5-8.3c14.2-26.4,34.6-71.2,34.6-90.4a7.6,7.6,0,0,0-9-7.4,380.5,380.5,0,0,1-79,7.9C258.5,7.8,226,4.5,205.6.2a7.6,7.6,0,0,0-8.1,11.2,78.3,78.3,0,0,1,9.7,26C181.6,38.2,155,35,134.8,25A7.6,7.6,0,0,0,124,33c6.3,38,19.1,60.2,31.9,77.1h-.3a23.7,23.7,0,0,0-3.1,47.1c-8.4,14.2-20.5,27.6-33.2,41.7-26.9,30-57.5,63.9-67.8,118.8-4.9,26.2-4.8,50.8.5,73a134.7,134.7,0,0,0,27.7,55.7c17.9,21.6,42.5,38.4,73.2,49.8,27.6,10.3,59.2,15.8,91.4,15.8s63.8-5.5,91.4-15.8c30.6-11.4,55.2-28.2,73.1-49.8a134.9,134.9,0,0,0,27.8-55.7c5.2-22.2,5.4-46.8.5-73-10.3-54.9-40.9-88.8-67.9-118.8-9.1-10.2-17.8-19.9-25.1-29.7l91,20.9a23.7,23.7,0,0,0,25.4-35.7ZM284.5,23.2A389.1,389.1,0,0,0,356.2,17c-4.6,18.6-19.2,51.8-33.1,77a23.6,23.6,0,0,0-20.7,16.1H281.5l-1.6-3.4c-6.5-13.8-20-42.5-20-66.9a7.6,7.6,0,0,0-9-7.4,284.9,284.9,0,0,1-28.6,4.1,99.6,99.6,0,0,0-5-18.9A508.9,508.9,0,0,0,284.5,23.2Zm48.9,94.4v32.3a8.6,8.6,0,0,1-17.1,0V117.6a8.6,8.6,0,0,1,17.1,0ZM141.6,44.1c18.9,6.5,42.1,9.3,67.2,8.4l15-.9c7.1-.7,14.2-1.6,21.5-2.8,2.3,23.4,13,47.4,19.5,61.3H175.2l-.6-.8C162,94.1,149.2,76.5,141.6,44.1ZM358,209c25.6,28.5,54.7,60.8,64.2,111.5,8.8,46.6.3,85.8-25,116.3-31.2,37.6-88.4,60.1-152.9,60.1s-121.7-22.5-153-60.1c-25.3-30.5-33.7-69.7-25-116.3,9.6-50.7,38.6-83,64.3-111.5,15.3-17,29.8-33.2,39.1-51.6h18.4a7.6,7.6,0,1,0,0-15.1H155.6a8.6,8.6,0,0,1,0-17.1H301.2v17.1H224.1a7.6,7.6,0,0,0,0,15.1h78.3a23.8,23.8,0,0,0,22.5,16.1l3.5-.2C336.8,185.5,347.1,196.9,358,209Zm-9.5-87.9,71.1-19.9a8.6,8.6,0,0,1,10.5,6,8.5,8.5,0,0,1-5.9,10.5l-40.6,11.4-1,.3-34.1-7.8v-.5Zm100.3,47.8a8.7,8.7,0,0,1-10.3,6.5l-90.4-20.8a25.2,25.2,0,0,0,.4-4.8V137.1l93.9,21.6A8.6,8.6,0,0,1,448.8,168.9Z" style="user-select: auto;"></path><path d="M292.6,310.5a19.7,19.7,0,0,0,19.7-19.6V278.8a56,56,0,0,0-48.4-55.4V210.3a19.7,19.7,0,1,0-39.3,0v14.1a62,62,0,0,0,13.6,122.4h12.1a22.7,22.7,0,1,1,0,45.3H232.2a16.6,16.6,0,0,1-16.6-16.6,19.7,19.7,0,0,0-39.3,0,56,56,0,0,0,48.3,55.4V444a19.7,19.7,0,0,0,39.3,0V429.9a62,62,0,0,0-13.6-122.4H238.2a22.7,22.7,0,0,1,0-45.3h18.2A16.6,16.6,0,0,1,273,278.8v12.1A19.6,19.6,0,0,0,292.6,310.5Zm-36.2-63.4H238.2a37.8,37.8,0,0,0,0,75.5h12.1a46.8,46.8,0,0,1,5.2,93.4,7.6,7.6,0,0,0-6.7,7.5V444a4.5,4.5,0,0,1-4.5,4.5,4.6,4.6,0,0,1-4.6-4.5V423.9a7.5,7.5,0,0,0-7.5-7.6,40.8,40.8,0,0,1-40.8-40.8,4.5,4.5,0,0,1,4.5-4.5,4.6,4.6,0,0,1,4.6,4.5,31.7,31.7,0,0,0,31.7,31.7h18.1a37.8,37.8,0,1,0,0-75.5H238.2a46.8,46.8,0,0,1-5.2-93.4,7.5,7.5,0,0,0,6.7-7.5V210.3a4.6,4.6,0,0,1,4.6-4.5,4.5,4.5,0,0,1,4.5,4.5v20.1a7.6,7.6,0,0,0,7.6,7.6,40.8,40.8,0,0,1,40.8,40.8v12.1a4.6,4.6,0,0,1-4.6,4.5,4.5,4.5,0,0,1-4.5-4.5V278.8A31.7,31.7,0,0,0,256.4,247.1Z" style="user-select: auto;"></path></symbol>
                    <symbol xmlns="http://www.w3.org/2000/svg" viewBox="0 0 512 512" id="Optimization" style="user-select: auto;"><title style="user-select: auto;">work</title><path d="M477,444.5a41.8,41.8,0,0,0,9.4-26.4v-17a42.7,42.7,0,1,0-85.3,0v17a41.8,41.8,0,0,0,9.4,26.4A42.7,42.7,0,0,0,384,461.1a42.7,42.7,0,0,0-26.5-16.6,41.8,41.8,0,0,0,9.4-26.4v-17a42.7,42.7,0,1,0-85.3,0v17a41.8,41.8,0,0,0,9.4,26.4,42.7,42.7,0,0,0-26.5,16.6,42.5,42.5,0,0,0-26.4-16.6,43,43,0,0,0,9.4-26.4v-17a42.7,42.7,0,1,0-85.4,0v17a43,43,0,0,0,9.4,26.4,42.8,42.8,0,0,0-35,41.9V512h17.1V486.4a25.6,25.6,0,0,1,25.6-25.6h51.2A25.6,25.6,0,0,1,256,486.4V512h17.1V486.4a25.6,25.6,0,0,1,25.6-25.6h51.2a25.6,25.6,0,0,1,25.6,25.6V512h17V486.4a25.6,25.6,0,0,1,25.6-25.6h51.2a25.6,25.6,0,0,1,25.6,25.6V512H512V486.4A42.7,42.7,0,0,0,477,444.5ZM230.4,418.1a25.6,25.6,0,1,1-51.2,0v-17a25.6,25.6,0,1,1,51.2,0Zm119.5,0a25.6,25.6,0,1,1-51.2,0v-17a25.6,25.6,0,1,1,51.2,0Zm119.4,0a25.6,25.6,0,1,1-51.2,0v-17a25.6,25.6,0,0,1,51.2,0Z" style="user-select: auto;"></path><path d="M207.9,171.3a8.1,8.1,0,0,0-3.1-.6H170.7a8.6,8.6,0,0,0-8.1,5.6l-9,24.9-.3-.9a45.2,45.2,0,0,0-42.4-29.6h-.2a42.6,42.6,0,0,0,8.8-25.6V128a42.7,42.7,0,0,0-85.4,0v17.1a42.6,42.6,0,0,0,8.8,25.6h-.2A42.7,42.7,0,0,0,0,213.3V315.7a8.6,8.6,0,0,0,8.5,8.6H34.1V407L18.5,430.5a8.4,8.4,0,0,0,2.4,11.8,8.6,8.6,0,0,0,4.7,1.4H128a8.5,8.5,0,0,0,8.5-8.5,8.6,8.6,0,0,0-1.4-4.7L119.5,407V249.5l2.1,4.2a34.9,34.9,0,0,0,63.6-2.6l13.9-34.6,13.6-34.2A8.4,8.4,0,0,0,207.9,171.3ZM51.2,128a25.6,25.6,0,0,1,51.2,0v17.1a25.6,25.6,0,0,1-51.2,0ZM34.1,307.2h-17V290.1h17ZM85.3,426.7V324.3h-17V426.7H41.5l8.3-12.4a8.6,8.6,0,0,0,1.4-4.7V307.2h51.2V409.6a8.6,8.6,0,0,0,1.4,4.7l8.3,12.4Zm84.1-181.9a17.9,17.9,0,0,1-23.2,9.9,17.2,17.2,0,0,1-9.3-8.5l-18.3-36.7a8.5,8.5,0,0,0-16.2,3.8v76.8H51.2V213.3a8.5,8.5,0,0,0-8.5-8.5,8.6,8.6,0,0,0-8.6,8.5v59.8h-17V213.3a25.6,25.6,0,0,1,25.6-25.6H68.3v85.4h17V187.7h25.6a28.3,28.3,0,0,1,26.4,18.5l8.3,22.9a8.5,8.5,0,0,0,16,0l2.6-7.2h14.3Zm16-40h-15l6.2-17.1h15.6Z" style="user-select: auto;"></path><path d="M503.5,51.2a8.5,8.5,0,0,0,8.5-8.5V8.5A8.5,8.5,0,0,0,503.5,0H145.1a8.6,8.6,0,0,0-8.6,8.5V42.7a8.6,8.6,0,0,0,8.6,8.5h8.5V153.6h17.1V51.2H477.9V238.9H204.8V256H315.7v37.7l-55.4,31.7,8.4,14.8,47-26.8v27.9h17.1V313.4l46.9,26.8,8.5-14.8-55.4-31.7V256H512V238.9H494.9V51.2ZM153.6,34.1v-17H494.9v17Z" style="user-select: auto;"></path><path d="M420.2,94.1l-34.1-8.5-4.2,16.5,16,4-64.8,45.4-37.6-30.2a8.6,8.6,0,0,0-10.3-.2l-59.8,42.6,10,13.9,54.4-38.9,37.7,30.1a8.4,8.4,0,0,0,10.2.3l71.9-50.3v17.7h17.1V102.4A8.6,8.6,0,0,0,420.2,94.1Z" style="user-select: auto;"></path></symbol>

                    <symbol xmlns="http://www.w3.org/2000/svg" viewBox="0 0 512 512" id='StrategicControl' style="user-select: auto;"><title style="user-select: auto;"></title><path d="M203,376a10,10,0,1,1-10-10A10,10,0,0,1,203,376Z" style="user-select: auto;"></path><path d="M452,382H402V332a10,10,0,0,0-20,0v60a10,10,0,0,0,10,10h60a10,10,0,0,0,0-20Z" style="user-select: auto;"></path><path d="M70,206h63a10,10,0,0,0,0-20H70a10,10,0,0,0,0,20Z" style="user-select: auto;"></path><path d="M256,186H193a10,10,0,0,0,0,20h63a10,10,0,0,0,0-20Z" style="user-select: auto;"></path><path d="M70,266h63a10,10,0,0,0,0-20H70a10,10,0,0,0,0,20Z" style="user-select: auto;"></path><path d="M153,366H70a10,10,0,0,0,0,20h83a10,10,0,0,0,0-20Z" style="user-select: auto;"></path><path d="M256,246H193a10,10,0,0,0,0,20h63a10,10,0,0,0,0-20Z" style="user-select: auto;"></path><path d="M70,326h63a10,10,0,0,0,0-20H70a10,10,0,0,0,0,20Z" style="user-select: auto;"></path><path d="M256,306H193a10,10,0,0,0,0,20h63a10,10,0,0,0,0-20Z" style="user-select: auto;"></path><path d="M316,206h60a10,10,0,0,0,0-20H316a10,10,0,0,0,0,20Z" style="user-select: auto;"></path><path d="M446,284.8V70a30.2,30.2,0,0,0-30-30H386V30a30,30,0,0,0-60,0V40H243V30a30,30,0,0,0-60,0V40H100V30a30,30,0,0,0-60,0V40H30A30.2,30.2,0,0,0,0,70V396a30.2,30.2,0,0,0,30,30H276.9A120,120,0,1,0,446,284.8ZM346,30a10,10,0,0,1,20,0V70a10,10,0,0,1-20,0ZM203,30a10,10,0,0,1,20,0V70a10,10,0,0,1-20,0ZM60,30a10,10,0,0,1,20,0V70a10,10,0,0,1-20,0ZM30,60H40V70a30,30,0,0,0,60,0V60h83V70a30,30,0,0,0,60,0V60h83V70a30,30,0,0,0,60,0V60h30a10,10,0,0,1,10,10v53H20V70A10,10,0,0,1,30,60ZM20,396V143H426V276.9a118.5,118.5,0,0,0-34-4.9A120.1,120.1,0,0,0,272,392a129.9,129.9,0,0,0,.8,14H30A10,10,0,0,1,20,396Zm372,96c-53.6,0-100-43.7-100-100A100,100,0,1,1,392,492Z" style="user-select: auto;"></path></symbol>


<symbol xmlns="http://www.w3.org/2000/svg" viewBox="0 0 512 512" id='SuitablePersonnel' style="user-select: auto;"><title style="user-select: auto;">auditor</title><path d="M392.5,85.3A119.5,119.5,0,0,0,341.3,97a145.2,145.2,0,0,0-33.8-54A143.4,143.4,0,0,0,204.8,0,146,146,0,0,0,59.7,146.5v24.1c0,20.9,0,34.7,9,52.7a36.7,36.7,0,0,0,23.4,19.6,113.2,113.2,0,0,0,53,89.5V342a46.5,46.5,0,0,0-30.3,16.2h-3.9A111.1,111.1,0,0,0,0,469.3v25.6A17,17,0,0,0,17.1,512H392.5a34.2,34.2,0,0,0,34.2-34.1V358.4a17.1,17.1,0,0,0-8.6-14.7V321.4A119.5,119.5,0,0,0,392.5,85.3ZM204.8,17.1A126.3,126.3,0,0,1,295.3,55a128.1,128.1,0,0,1,30.9,50.5,121.8,121.8,0,0,0-18.4,15.2,87.5,87.5,0,0,0-53.7-43,24.1,24.1,0,0,0-19.9,3c-29.9,20-87.4,31.3-116.9,32.6a24.7,24.7,0,0,0-23.4,24.8v9.8l-1.6-.6a24.9,24.9,0,0,0-15.5-.2v-.6A128.8,128.8,0,0,1,204.8,17.1ZM109.1,241.7A16.8,16.8,0,0,0,97,226.6a20.1,20.1,0,0,1-13.1-10.9c-7.1-14.4-7.1-24.7-7.1-45.1a7.6,7.6,0,0,1,3-6.4,7.5,7.5,0,0,1,6.8-.9c5.9,2.2,7.3,12.9,7.3,16.5a8.5,8.5,0,0,0,17,0h0V138.1a7.8,7.8,0,0,1,7.2-7.8c32.3-1.4,92.6-13.3,125.5-35.4a7.5,7.5,0,0,1,6.2-.7,67.4,67.4,0,0,1,45.5,41.4,119,119,0,0,0-1.7,136.2,95.8,95.8,0,0,1-88.8,60.9,94.6,94.6,0,0,1-67.7-28.4A97.8,97.8,0,0,1,109.1,241.7Zm95.7,150.7a37.7,37.7,0,0,1,26.7,12.3L218.3,418h-27l-13.2-13.2A38.4,38.4,0,0,1,204.8,392.4ZM261,358.7A30.4,30.4,0,0,1,281.5,369c-1.3,18.4-18.7,31-29.2,37l-1.8-3.2a5.3,5.3,0,0,0-.6-1,49.8,49.8,0,0,0-17.4-18.2A66.8,66.8,0,0,0,261,358.7Zm-21.4,62.1a8.6,8.6,0,0,0,4,4.8,8.5,8.5,0,0,0,3.8.9,8.7,8.7,0,0,0,3.2-.6,101.9,101.9,0,0,0,27.5-17.5c-4.6,29.6-14.4,63.7-33.6,80.6l-13.2-59.8Zm-80.7,5.1a8.2,8.2,0,0,0,11.1-5.1l8.4,8.4-13.7,61.3c-19.6-14.2-29.4-50.8-33.7-82.5a100.5,100.5,0,0,0,28,17.9Zm35.7,9.1H215l13.3,59.9h-47Zm103.8-59.7h.3a93.2,93.2,0,0,1,59.7,21.6v81a33.7,33.7,0,0,0,4.7,17H262.8c29.3-33.7,34.7-96.6,35.6-119.6Zm68.5-31.6a17,17,0,0,0-8.5,14.7v17.4a111.9,111.9,0,0,0-59.7-17.6h-3.9A46.5,46.5,0,0,0,264.5,342v-9.6a113.1,113.1,0,0,0,41.2-45.8,119.1,119.1,0,0,0,61.2,34.8Zm-162.1,6a110.2,110.2,0,0,0,42.7-8.4V348c-2.1,4.3-11.8,20.4-42.7,27.1-31.1-6.8-40.7-22.9-42.7-27.1v-6.7A110.2,110.2,0,0,0,204.8,349.7Zm-56.2,9A67.1,67.1,0,0,0,177,383.6a50.6,50.6,0,0,0-17.4,18.2l-.6,1a32.4,32.4,0,0,0-1.7,3.2c-10.6-6-28-18.6-29.2-37.1A30.5,30.5,0,0,1,148.6,358.7ZM17.1,469.3a94,94,0,0,1,93.8-94h.2c.9,23.3,5.9,87.5,33.5,119.6H17.1Zm392.5,8.6a17.1,17.1,0,0,1-34.1,0V358.4h34.1Zm-8.5-136.6H384V323.8c2.8.2,5.6.5,8.5.5s5.7-.3,8.6-.5Zm-8.6-34.1A102.4,102.4,0,1,1,494.9,204.8,102.4,102.4,0,0,1,392.5,307.2Z" style="user-select: auto;"></path><path d="M392.5,119.5a8.5,8.5,0,0,0,0,17,68.4,68.4,0,1,1-37.9,11.6,8.5,8.5,0,1,0-9.5-14.2h0a85.4,85.4,0,1,0,47.4-14.4Z" style="user-select: auto;"></path><path d="M366.9,187.7a8.6,8.6,0,0,0,6.1-2.5l8.5-8.5a8.6,8.6,0,0,0-12.1-12.1l-8.5,8.6a8.5,8.5,0,0,0,6,14.5Z" style="user-select: auto;"></path><path d="M369.4,236.4a8.5,8.5,0,0,0,12.1,0l51.2-51.2a8.4,8.4,0,0,0-.2-12,8.6,8.6,0,0,0-11.9,0l-51.2,51.2A8.5,8.5,0,0,0,369.4,236.4Z" style="user-select: auto;"></path></symbol>
<symbol xmlns="http://www.w3.org/2000/svg" width="14" height="16" viewBox="0 0 14 16" id='PlayButton' style="user-select: auto;"><path d="M12.8594 7.1738L2.54688 1.08005C1.69727 0.582001 0.4375 1.08005 0.4375 2.28122V14.4687C0.4375 15.582 1.60938 16.2558 2.54688 15.6992L12.8594 9.60544C13.7676 9.0488 13.7676 7.73044 12.8594 7.1738Z" style="user-select: auto;"></path></symbol>

            <symbol id='statue-of-liberty'
                xmlns="http://www.w3.org/2000/svg" viewBox="0 0 512 512"><title>statue-of-liberty
                    (1)</title><path
                    d="M158.9,392.5A3.5,3.5,0,0,1,156,394a3.1,3.1,0,0,1-2-.7,3.5,3.5,0,0,1-.8-4.8c19.7-28.2,21.2-58.6,20.9-70.4a3.5,3.5,0,0,1,3.3-3.6h.1a3.6,3.6,0,0,1,3.6,3.4C181.4,330.4,179.8,362.6,158.9,392.5Z"></path><path
                    d="M433,493.9c-1-14.9-4.2-31.2-9.5-48.6a3.5,3.5,0,0,0-3.3-2.5l-1,.2a3.5,3.5,0,0,0-2.4,4.4c5.1,16.8,8.2,32.6,9.2,46.9a6.1,6.1,0,0,1-1.7,4.7,5.9,5.9,0,0,1-4.5,2H334.4l2.3-5.5a326.8,326.8,0,0,0,12.3-34,3.5,3.5,0,0,0-2.4-4.3h-.9a3.5,3.5,0,0,0-3.4,2.5,350.6,350.6,0,0,1-14.5,39l-1.1,2.4H280.5l4.1-6.2a370.7,370.7,0,0,0,33.9-65.1,3.5,3.5,0,0,0-2-4.5,2.5,2.5,0,0,0-1.2-.2,3.5,3.5,0,0,0-3.3,2.2,376,376,0,0,1-38.9,72.1l-1.2,1.7H200.1l8.2-7A513.9,513.9,0,0,0,250,453.6a3.5,3.5,0,0,0-.2-5,3.3,3.3,0,0,0-2.3-.9,3.6,3.6,0,0,0-2.6,1.1,495.5,495.5,0,0,1-55,51.3l-1.1.9H160.3a6.3,6.3,0,0,1-6.2-5.3c-2.3-16.4-8.2-47.8-21.6-73.2-4.5-8.3-3.1-15.2-2-21.2a11.6,11.6,0,0,0,.4-1.8,33,33,0,0,0-7.1-27.2l-14.3-17.1a25.6,25.6,0,0,1,.2-33.2c3.7-4.2,6.3-7.3,8.5-9.7,7.8-9.2,7.8-9.2,24.8-29.9l25.6-31.2h.2a4.3,4.3,0,0,1,3.2-1.4,4.4,4.4,0,0,1,4.1,2.9c10.6,26.9,32.5,76.2,59.4,103.5,14.6,14.8,29.3,16,49.7,17.7l8.7.8,6.4.6-3.3,5.4a415.7,415.7,0,0,1-29.3,41.6,3.6,3.6,0,0,0-.7,2.6,3.4,3.4,0,0,0,3.4,3.1,3.7,3.7,0,0,0,2.8-1.3A426.6,426.6,0,0,0,306.7,378l1.3-2.2,2.5.2,42.5,4.1a65,65,0,0,1,51.6,34.5,3.4,3.4,0,0,0,3.1,1.9,2.9,2.9,0,0,0,1.6-.4,3.5,3.5,0,0,0,1.5-4.7,71.7,71.7,0,0,0-57.1-38.3l-23.5-2.2-2.3-.2-.9-2a133,133,0,0,1-12.1-37l-.4-2.1,1.6-1.5a30.3,30.3,0,0,0,9.3-21.9v-5.6l1.4-1.2a52.6,52.6,0,0,0,15.5-21.6l.2-.8.5-.5a54.7,54.7,0,0,0,13.7-26.1l.4-1.7,1.5-1,34.3-20.8a5.9,5.9,0,0,0,2.8-6.6,5.8,5.8,0,0,0-5.4-4.6l-39.3-3-1.9-.2L348,211a15.7,15.7,0,0,0-1.9-2.6l-1.8-2.4,1.7-2.4,25.9-36a6.5,6.5,0,0,0,.6-7.1,7,7,0,0,0-6.2-4,6.7,6.7,0,0,0-3.3.8l-50.4,26-1.5.8-1.6-.5q-3.6-1.2-7.5-2.1l-2.4-.6-.5-2.5-13.2-56.7c-1-4.8-4-6.5-7.2-6.5s-6.1,1.7-7.1,6.5l-13.2,56.7-.5,2.5-2.4.6q-3.9.9-7.5,2.1l-1.6.5-1.5-.8-50.4-26a6.8,6.8,0,0,0-3.3-.9,7.2,7.2,0,0,0-6.2,4.1,6.5,6.5,0,0,0,.6,7.1l25.9,36,1.7,2.4-1.8,2.4a24.8,24.8,0,0,0-1.9,2.6l-1.1,1.5-1.9.2-39.2,3a5.8,5.8,0,0,0-4.1,2h-.1c-.5.7-4,5.7,4.2,10.9l.5.3,13.1,7.9,2.3,1.4,15.7,9.5,1.5,1,.4,1.7a54.7,54.7,0,0,0,13.7,26.1l.5.5.3.8a51.4,51.4,0,0,0,15.4,21.6l1.4,1.2v5.6a30.3,30.3,0,0,0,9.3,21.9l1.6,1.5-.4,2.1c-.5,3.3-1.3,6.8-2.1,10.1l-1.9,7.6-5.1-6c-24-28.8-43.6-75-50.9-93.5a11.2,11.2,0,0,0-3.8-5l-1.8-1.1a11,11,0,0,0-5.1-1.2,15.4,15.4,0,0,0-3,.4l-3.6,1-1.2-3.6-2.2-6.9-3.2-10.2-.2-.4-2.1-6.7-7.7-24.1-.2-.6v-9l2.8-.9a11.7,11.7,0,0,0,7.7-14.1h-.1l-4.2-15.1a11.7,11.7,0,0,0-4.5-6.4l-1.7-1.2V120.6H161a18.1,18.1,0,0,0,18-18.1V91.3a9.6,9.6,0,0,0-9.5-9.6h-7.7l1.8-5.3c8.7-25.9-1.9-54-26.4-70A14.8,14.8,0,0,0,129,4a15.1,15.1,0,0,0-8.2,2.4c-24.5,16-35.1,44.1-26.4,70l1.8,5.3H88.6A9.6,9.6,0,0,0,79,91.3v11.2a18.1,18.1,0,0,0,18.1,18.1h12.4v32.3l-2.9.8-3.2.9a11.7,11.7,0,0,0-8.1,14.3L99.6,184a11,11,0,0,0,5.5,7,7.6,7.6,0,0,0,1.8.9l2.6.9v7.7c-.1,6.9-.1,6.9,3,47.6,1,13.1,2.3,30.4,4,53.5v1.7l-1,1.2-11.2,13a32.4,32.4,0,0,0-.3,42.1l14.4,17.2a25.9,25.9,0,0,1,5.5,21.4l-.3,1.7c-1.3,6.5-3,15.3,2.6,25.9,13.4,25.3,19.1,58,20.9,70.9A13.2,13.2,0,0,0,160.3,508H419.8A13.2,13.2,0,0,0,433,493.9ZM359.5,220.3l14.9,1.2,12.5.9-10.7,6.5-12.9,7.8-5.2,3.2-.8-6.1a49.7,49.7,0,0,0-1.9-8.3l-1.8-5.6Zm-157.4,5.2a62,62,0,0,0-1.9,8.3l-.8,6.1-5.2-3.2-12.9-7.8-10.7-6.5,12.5-.9,14.9-1.2,5.9-.4ZM317,363.7l2.6,6.2-6.7-.7-20.7-1.8c-25.6-2.1-34.2-2.9-45.8-11.2l-2.3-1.7.8-2.8a120.5,120.5,0,0,0,3.5-13.1l1.1-4.9,4.5,2.1c12.3,5.6,19.6,7.9,25.2,7.9a19.1,19.1,0,0,0,6.2-1,156,156,0,0,0,18.1-6.9l4.5-2,1.1,4.8A137.6,137.6,0,0,0,317,363.7Zm9.4-179.6,25-12.9,14.8-7.7-9.7,13.6-14.6,20.2-2.5,3.5-3.3-2.8a79.2,79.2,0,0,0-9.9-6.9l-6.2-3.7Zm-59.9-9.9,8.3-36,4-16.2,3.9,16.2,8.3,36,1.2,5.3-5.4-.5-8-.3-8.1.3-5.3.5ZM201,177.1l-9.7-13.6,14.8,7.7,25,12.9,6.4,3.3-6.2,3.7a79.2,79.2,0,0,0-9.9,6.9l-3.3,2.8-2.5-3.5ZM215,248l-5.2,14.7-2.5-15.4A43.9,43.9,0,0,1,217.7,211c13.2-15.5,37.2-25.2,62.6-25.2,28.4,0,51.7,11.6,63.9,31.9a43.9,43.9,0,0,1,6,29.6l-2.5,15.4L342.5,248c-8.2-22.8-34.3-38.8-63.7-38.8a76.5,76.5,0,0,0-40.9,11.4C227,227.6,218.8,237.3,215,248Zm17.1,18.9v27.7l-7.4-13a37.2,37.2,0,0,1,.1-38.1c9.7-16.8,30.4-27.3,54-27.3s44.2,10.5,54,27.3a37.2,37.2,0,0,1,0,38.1l-7.4,13V266.9a9.4,9.4,0,0,0-.7-3.7,10.9,10.9,0,0,0-8.1-7c-6.9-1.5-20-5.4-30.8-16.2a10,10,0,0,0-14.1,0c-10.8,10.8-23.9,14.7-30.8,16.2A10.9,10.9,0,0,0,232.1,266.9Zm86.3-2.9v42.2a23,23,0,0,1-9.7,18.9c-3.7,2.7-14,7.2-24.4,10.6H284a16.4,16.4,0,0,1-5.3,1,16.8,16.8,0,0,1-4.4-.7c-.2-.1-18.6-6.1-25.6-11a23.4,23.4,0,0,1-9.6-18.9V263.7l3.2-.7A69.1,69.1,0,0,0,276,245.6l2.8-2.7,2.7,2.7a70.1,70.1,0,0,0,29.7,16.5m-161.3-43,9.4,29.4.7,2.1-1.4,1.7-29.2,35.6-6.3,7.7-.8-9.9-4.6-62.2-.3-4.3h19.7a11.4,11.4,0,0,0,6.7-2.2l4.5-3.2ZM124.6,12.3A8.7,8.7,0,0,1,129,11a8.4,8.4,0,0,1,4.4,1.3c21.2,13.8,30.7,37.2,24.3,59.7l-3.9,13.5L150,72a36.8,36.8,0,0,0-15.6-20.7,9.5,9.5,0,0,0-5.4-1.6,9.2,9.2,0,0,0-5.3,1.6A36.6,36.6,0,0,0,108,72l-3.7,13.5L100.4,72C93.9,49.5,103.4,26.1,124.6,12.3Zm20,69.4H113.4l.7-4.6c1.1-7.7,5.6-14.6,12.7-19.5L129,56l2.3,1.6c7,4.9,11.5,11.8,12.7,19.5ZM97.1,113.6A11.1,11.1,0,0,1,86,102.5V88.7h86v13.8a11.1,11.1,0,0,1-11,11.1Zm44.4,7v23.3l-2.9.8-17,4.8-5.1,1.4V120.6ZM112,185.4h-1.2a4.7,4.7,0,0,1-4.5-3.3L102.1,167a4.3,4.3,0,0,1,.4-3.5,5.2,5.2,0,0,1,2.8-2.2L142.2,151l1.3-.2a4.8,4.8,0,0,1,4.5,3.4l4.2,15.1a4.7,4.7,0,0,1-.4,3.5A4.4,4.4,0,0,1,149,175Zm4.6,23.2V191.4l3-.9,16.9-4.7,5.1-1.4v23.4a4.4,4.4,0,0,1-4.4,4.4H120.9A4.4,4.4,0,0,1,116.6,208.6Z"></path><path
                    d="M180.9,236.8l2.3,1.4Z"></path><path
                    d="M177,243.8l1.8,1.1Z"></path><path d="M158.5,222.9l.2.4Z"></path><path
                    d="M167.8,228.9l-.5-.3c-8.2-5.2-4.7-10.2-4.2-10.9h.1"></path></symbol>
                 <symbol id='sydney-opera-house'
                xmlns="http://www.w3.org/2000/svg" viewBox="0 0 512 512"><title>sydney-opera-house
                    (2)</title><path
                    d="M172.5,187.7l-3.1,6.3a75.9,75.9,0,0,0-30.9-6.3,99.9,99.9,0,0,0-11,.7l-1.2-6.9a100,100,0,0,1,12.2-.8A85.4,85.4,0,0,1,172.5,187.7Z"></path><path
                    d="M322.2,228.8a108.7,108.7,0,0,0-28.1,19l-4.9-5a114.5,114.5,0,0,1,30.3-20.4Z"></path><path
                    d="M464.4,372.4V328l.4-.8,40.6-86.4H471.9a63.6,63.6,0,0,0-58.4,38.5l-2.7,6.4-4.1-5.5a43.2,43.2,0,0,0-34.8-17.4H334.1l39.4,54.6,4.6,6.4H328.7l1.6-5.2,3-9.8-6.7-2L322.2,321l-.8,2.8H306.6l-1.2-1.4-54.6-63.7-1.9-2.2,1.5-2.5A145.8,145.8,0,0,1,270,229.3a138.5,138.5,0,0,1,87.3-40.1l5.9-.4-1.7,5.6-11.5,37,6.7,2.1,16-51.7h-4.8a144.2,144.2,0,0,0-102.8,42.6,142.4,142.4,0,0,0-13.9,16l-4.9,6.7-2.1-8.1-2.6-9.8h0c-7.2-29.4-25.6-53-51.8-66.4a114.5,114.5,0,0,0-51.3-11.9,130.4,130.4,0,0,0-50.6,10.3l-10.6,4.3,11.9,26.8,2.8,6.2-6.8-.6a96.9,96.9,0,0,0-10.7-.5A122.3,122.3,0,0,0,34.7,204l-3.5,1.2,11.2,28.3,2.1,5.3H38.7a73.6,73.6,0,0,0-28.1,6.2l-3.1,1.3,31.7,80.8.3.7v44.5H4v7H507.9v-7ZM352.3,276.1l-4.5-6.3h24.1a36.6,36.6,0,0,1,36.5,36.5v17.5H386.7l-1.2-1.7ZM241.7,265.6l3.1-3.1,2.8,3.3,44.1,51.4,5.7,6.6H185.2l6.6-6.8ZM88.3,172.9l-1.7-3.7,3.8-1.6h.1a124.7,124.7,0,0,1,48-9.7A105.7,105.7,0,0,1,186.6,169c24.4,12.4,41.5,34.3,48.2,61.8l6,23,.5,2.2-1.5,1.6-63.2,65-1.2,1.2H155.3l-1.1-2.4ZM42,213.6l-1.6-4.2,4.3-1.2a117.3,117.3,0,0,1,29.8-3.9A98.4,98.4,0,0,1,93.4,206l2.1.4.9,1.9,48.7,109.9,2.5,5.6H85.5l-1-2.6Zm2.4,107.6L18,254.1l-1.5-4,4.1-1.3a67.9,67.9,0,0,1,19.6-2.9l4.7.2h2.5l.9,2.4,27.5,69.7,2.2,5.5H45.4Zm413,51.2H404.7V353.9h-7v18.5H345V353.9h-7v18.5H285.3V353.9h-7v18.5H225.6V353.9h-7v18.5H165.9V353.9h-7v18.5H106.2V353.9h-7v18.5H46.5V330.8H457.4Zm1.3-48.6H415.4V304.3a56.6,56.6,0,0,1,56.5-56.5h22.5l-2.7,5.7-31.9,68Z"></path><path
                    d="M317.2,43h-3.7L312.3,41a46.1,46.1,0,0,0-73.8-8.9L237,33.8l-2.2-.5a39.4,39.4,0,0,0-6-.5,33.4,33.4,0,0,0-32.1,24.7L196,60l-2.4.4a24.8,24.8,0,0,0,4.6,49.1h119a33.3,33.3,0,0,0,0-66.5Zm0,59.5h-119a17.8,17.8,0,0,1,0-35.5h.8l3.4.2.3-3.4a26.1,26.1,0,0,1,34.5-22.6l2.3.8,1.6-2a38.4,38.4,0,0,1,31.1-15.5,38.9,38.9,0,0,1,35.9,23.9l1.1,2.7,2.8-.6a30.5,30.5,0,0,1,5.2-.5,26.3,26.3,0,0,1,0,52.5Z"></path><path
                    d="M490.9,107.9l-2.2-.4-.8-2.1a33.5,33.5,0,0,0-56.4-10.7L430,96.3l-2.2-.4a26.3,26.3,0,0,0-4.9-.4,27.5,27.5,0,0,0,0,55h63.6a21.5,21.5,0,0,0,4.4-42.6Zm-4.4,35.6H422.9a20.5,20.5,0,1,1,7.3-39.7l2.6,1,1.5-2.3a26.5,26.5,0,0,1,48.2,9.2l.6,2.9h3.6a14.5,14.5,0,0,1-.2,29Z"></path><path
                    d="M78,19.5a21.9,21.9,0,0,0-3.6.3l-2.1.3-1.5-1.5A28.2,28.2,0,0,0,50,9.5,28.7,28.7,0,0,0,23.5,27.6l-.8,1.9-2,.5A18.5,18.5,0,0,0,25,66.5H78a23.5,23.5,0,0,0,0-47Zm0,40H25a11.5,11.5,0,0,1-.2-23h3.5l.6-2.9A21.5,21.5,0,0,1,68,26.2l1.5,2.4,2.7-1A16.2,16.2,0,0,1,78,26.5a16.5,16.5,0,0,1,0,33Z"></path><path
                    d="M156,428a27.2,27.2,0,0,1-22.4,11.5,27.8,27.8,0,0,1-18.6-7.2l-2.7-2.6-2.7,2.6A27.8,27.8,0,0,1,91,439.5,27.5,27.5,0,0,1,72.1,432l-2.8-2.6L66.6,432a26.8,26.8,0,0,1-40.7-4.1l6.4-3.2A19.2,19.2,0,0,0,48,432.5a20,20,0,0,0,17.9-11.2l.9-1.9h5l1,1.9A20,20,0,0,0,91,432.5a20.2,20.2,0,0,0,18.2-11.2l1-1.9h4.3l.9,1.9a20.2,20.2,0,0,0,18.2,11.2,19.9,19.9,0,0,0,16.1-7.8Z"></path><path
                    d="M378,449a27.6,27.6,0,0,1-41,4.3l-2.7-2.6-2.8,2.6A27.6,27.6,0,0,1,294,453l-2.7-2.6-2.8,2.6a26.7,26.7,0,0,1-40.6-4.1l6.3-3.2a19.4,19.4,0,0,0,15.8,7.8,19.7,19.7,0,0,0,17.8-11.2l1-1.9h5l.9,1.9a20.2,20.2,0,0,0,18.2,11.2,20,20,0,0,0,18.2-11.2l1-1.9h4.3l1,1.9a20.4,20.4,0,0,0,34.3,3.4Z"></path><path
                    d="M195,487.7l6.3,3.2A26.9,26.9,0,0,1,179,502.5a27.5,27.5,0,0,1-18.9-7.5l-2.8-2.7-2.8,2.7a26.7,26.7,0,0,1-40.6-4.1l6.3-3.2a19.8,19.8,0,0,0,33.6-3.4l1-1.9h5l1,1.9a20.4,20.4,0,0,0,34.2,3.4Z"></path><path
                    d="M502.3,490.9a27.2,27.2,0,0,1-22.4,11.6A27.5,27.5,0,0,1,461,495l-2.7-2.7-2.8,2.7a26.7,26.7,0,0,1-40.6-4.1l6.3-3.2a19.4,19.4,0,0,0,15.7,7.8,19.8,19.8,0,0,0,17.9-11.2l1-1.9h4.9l1,1.9a20.1,20.1,0,0,0,18.2,11.2,19.9,19.9,0,0,0,16.1-7.8Z"></path><rect
                    x="232" y="71.5" width="40" height="6.99"></rect><rect
                    x="299.9" y="71.5" width="12" height="6.99"></rect></symbol>
                    <symbol id='Amsterdam, Netherlands'
                xmlns="http://www.w3.org/2000/svg" viewBox="0 0 512 512"><title>mill</title><path
                    d="M446.5,331.5a11.6,11.6,0,0,0,0-16.4l-91.2-91.2a11.5,11.5,0,0,0-8.1-3.4,11.9,11.9,0,0,0-8.2,3.4l-23.2,23.2L313,250l-2.8-2.9-.8-.7-1.1-1.1v-1.6c-.3-13.4-.3-21.2-.3-21.3V206.3a51.9,51.9,0,0,0-14.2-35.6l-2.7-2.8L423.7,35.1a3.2,3.2,0,0,0,1.1-2.4,3.3,3.3,0,0,0-1.1-2.5,3.1,3.1,0,0,0-2.4-1,3.3,3.3,0,0,0-2.5,1l-.4.4-2.8,2.8-2.9-2.8L389.5,7.4A11.1,11.1,0,0,0,381.4,4a11.5,11.5,0,0,0-8.2,3.4L282,98.6a11.5,11.5,0,0,0,0,16.3l23.2,23.2,2.8,2.8-2.8,2.9-17.5,17.5-2.3,2.2-2.6-1.6a51.8,51.8,0,0,0-26.8-7.4,51.2,51.2,0,0,0-26.7,7.4l-2.7,1.6-2.3-2.2L135.5,72.5a3.2,3.2,0,0,0-2.5-1,3.1,3.1,0,0,0-2.4,1,3.4,3.4,0,0,0-1.1,2.5,3.2,3.2,0,0,0,1.1,2.4l63.5,63.5L168,167a4.6,4.6,0,0,1-3.2,1.3,4.8,4.8,0,0,1-3.2-1.3L70.4,75.8a4.9,4.9,0,0,1-1.3-3.3,4,4,0,0,1,1.3-3.1L93.6,46.1l2.8-2.8,2.9,2.8,9.5,9.6a3.7,3.7,0,0,0,2.5,1,3.5,3.5,0,0,0,2.4-6L93.2,30.2a3.3,3.3,0,0,0-2.5-1,3.1,3.1,0,0,0-2.4,1,3.4,3.4,0,0,0,0,4.9l.4.4,2.8,2.9-26,26a11.3,11.3,0,0,0-3.4,8.1,11.5,11.5,0,0,0,3.4,8.2l91.2,91.2a11.1,11.1,0,0,0,8.1,3.4,11.5,11.5,0,0,0,8.2-3.4l26-26,22,22-2.7,2.8a51.8,51.8,0,0,0-14.1,35.6v16.1c0,.1-.1,7.9-.4,21.2v1.6l-1.1,1.2L88.3,360.7a3.4,3.4,0,0,0-1.1,2.5,3.6,3.6,0,0,0,1.1,2.5,3.5,3.5,0,0,0,2.4,1,3.7,3.7,0,0,0,2.5-1l.4-.4,2.8-2.9,26.1,26.1a11.4,11.4,0,0,0,8.1,3.3,11.8,11.8,0,0,0,8.2-3.3L199,328.3l-1.1,11c-4.2,43.8-10.2,82.8-17.8,116.1a1.7,1.7,0,0,0-.1.7V501H159.3a3.5,3.5,0,1,0,0,7H352.7a3.5,3.5,0,1,0,0-7H332V456.2a1.9,1.9,0,0,0-.1-.8C317,390.7,311.3,316.6,309,265.7l-.4-10.2,14.6,14.6a3.7,3.7,0,0,0,2.5,1,3.5,3.5,0,0,0,2.5-6l-7.4-7.4-2.9-2.8,2.9-2.8L344,228.9a4.3,4.3,0,0,1,3.2-1.4,4.5,4.5,0,0,1,3.2,1.4l91.2,91.2a4.6,4.6,0,0,1,1.3,3.2,4.4,4.4,0,0,1-1.3,3.2h0l-26,26-2.9-2.8L350.1,287a3.5,3.5,0,0,0-5,5l73.7,73.7a3.7,3.7,0,0,0,2.5,1,3.5,3.5,0,0,0,2.4-1,3.6,3.6,0,0,0,1.1-2.5,3.4,3.4,0,0,0-1.1-2.5l-.4-.4-2.8-2.8,2.8-2.8ZM287,110a4.6,4.6,0,0,1,0-6.5l91.2-91.2a4.4,4.4,0,0,1,3.2-1.3,4.8,4.8,0,0,1,3.2,1.3l23.2,23.2,2.8,2.8-2.8,2.9-92,92L313,136l-2.8-2.8Zm-3.9,65.7,3-2.9,2.8,3a45.1,45.1,0,0,1,12,30.5V227H290l-1.2-1.2-25-25-2.8-2.9,2.8-2.8Zm-3,51.3H231.9l6.8-6.8,14.5-14.5,2.8-2.8,2.8,2.8,14.5,14.5Zm-43.6-61.1a45.4,45.4,0,0,1,39,0l5.1,2.5-4,4-17.8,17.7L256,193l-2.8-2.9-17.8-17.7-4-4ZM211.1,223V206.3a45,45,0,0,1,11.9-30.5l2.8-3,3,2.9,19.3,19.4,2.8,2.8-2.8,2.9-25,25L222,227H211.1ZM133.8,383.5a4.2,4.2,0,0,1-3.2,1.3,4.4,4.4,0,0,1-3.2-1.3l-23.2-23.2-2.8-2.8,2.8-2.8,92-92,2.8-2.9,26,26.1a4.5,4.5,0,0,1,0,6.4Zm189.3,64.3,1,4.9H296.3a3.5,3.5,0,0,0-3.5,3.5,3.5,3.5,0,0,0,3.5,3.5H325V501H259.5V488.4a3.5,3.5,0,0,0-7,0V501H187V459.7h77.1a3.5,3.5,0,0,0,3.5-3.5,3.5,3.5,0,0,0-3.5-3.5H187.9l1-4.9c7.8-36.1,13.7-78.4,17.6-125.7v-1.4L230,297.3a11.6,11.6,0,0,0,0-16.4l-19.8-19.8v-1.7q.1-5.1.3-9.6v-1.6l1.1-1.1,11.9-11.9,1.2-1.2h62.2l14.3,14.2v1.6C302.8,292.5,307.5,375.1,323.1,447.8Z"></path><path
                    d="M259.5,295v8a3.5,3.5,0,0,1-7,0v-8a3.5,3.5,0,0,1,7,0Z"></path><path
                    d="M259.5,335.3v8a3.5,3.5,0,0,1-7,0v-8a3.5,3.5,0,1,1,7,0Z"></path></symbol>
                     <symbol id='man'
                    xmlns="http://www.w3.org/2000/svg"
                     viewBox="0 0
                    512 512"><title>auditor</title><path
                        d="M392.5,85.3A119.5,119.5,0,0,0,341.3,97a145.2,145.2,0,0,0-33.8-54A143.4,143.4,0,0,0,204.8,0,146,146,0,0,0,59.7,146.5v24.1c0,20.9,0,34.7,9,52.7a36.7,36.7,0,0,0,23.4,19.6,113.2,113.2,0,0,0,53,89.5V342a46.5,46.5,0,0,0-30.3,16.2h-3.9A111.1,111.1,0,0,0,0,469.3v25.6A17,17,0,0,0,17.1,512H392.5a34.2,34.2,0,0,0,34.2-34.1V358.4a17.1,17.1,0,0,0-8.6-14.7V321.4A119.5,119.5,0,0,0,392.5,85.3ZM204.8,17.1A126.3,126.3,0,0,1,295.3,55a128.1,128.1,0,0,1,30.9,50.5,121.8,121.8,0,0,0-18.4,15.2,87.5,87.5,0,0,0-53.7-43,24.1,24.1,0,0,0-19.9,3c-29.9,20-87.4,31.3-116.9,32.6a24.7,24.7,0,0,0-23.4,24.8v9.8l-1.6-.6a24.9,24.9,0,0,0-15.5-.2v-.6A128.8,128.8,0,0,1,204.8,17.1ZM109.1,241.7A16.8,16.8,0,0,0,97,226.6a20.1,20.1,0,0,1-13.1-10.9c-7.1-14.4-7.1-24.7-7.1-45.1a7.6,7.6,0,0,1,3-6.4,7.5,7.5,0,0,1,6.8-.9c5.9,2.2,7.3,12.9,7.3,16.5a8.5,8.5,0,0,0,17,0h0V138.1a7.8,7.8,0,0,1,7.2-7.8c32.3-1.4,92.6-13.3,125.5-35.4a7.5,7.5,0,0,1,6.2-.7,67.4,67.4,0,0,1,45.5,41.4,119,119,0,0,0-1.7,136.2,95.8,95.8,0,0,1-88.8,60.9,94.6,94.6,0,0,1-67.7-28.4A97.8,97.8,0,0,1,109.1,241.7Zm95.7,150.7a37.7,37.7,0,0,1,26.7,12.3L218.3,418h-27l-13.2-13.2A38.4,38.4,0,0,1,204.8,392.4ZM261,358.7A30.4,30.4,0,0,1,281.5,369c-1.3,18.4-18.7,31-29.2,37l-1.8-3.2a5.3,5.3,0,0,0-.6-1,49.8,49.8,0,0,0-17.4-18.2A66.8,66.8,0,0,0,261,358.7Zm-21.4,62.1a8.6,8.6,0,0,0,4,4.8,8.5,8.5,0,0,0,3.8.9,8.7,8.7,0,0,0,3.2-.6,101.9,101.9,0,0,0,27.5-17.5c-4.6,29.6-14.4,63.7-33.6,80.6l-13.2-59.8Zm-80.7,5.1a8.2,8.2,0,0,0,11.1-5.1l8.4,8.4-13.7,61.3c-19.6-14.2-29.4-50.8-33.7-82.5a100.5,100.5,0,0,0,28,17.9Zm35.7,9.1H215l13.3,59.9h-47Zm103.8-59.7h.3a93.2,93.2,0,0,1,59.7,21.6v81a33.7,33.7,0,0,0,4.7,17H262.8c29.3-33.7,34.7-96.6,35.6-119.6Zm68.5-31.6a17,17,0,0,0-8.5,14.7v17.4a111.9,111.9,0,0,0-59.7-17.6h-3.9A46.5,46.5,0,0,0,264.5,342v-9.6a113.1,113.1,0,0,0,41.2-45.8,119.1,119.1,0,0,0,61.2,34.8Zm-162.1,6a110.2,110.2,0,0,0,42.7-8.4V348c-2.1,4.3-11.8,20.4-42.7,27.1-31.1-6.8-40.7-22.9-42.7-27.1v-6.7A110.2,110.2,0,0,0,204.8,349.7Zm-56.2,9A67.1,67.1,0,0,0,177,383.6a50.6,50.6,0,0,0-17.4,18.2l-.6,1a32.4,32.4,0,0,0-1.7,3.2c-10.6-6-28-18.6-29.2-37.1A30.5,30.5,0,0,1,148.6,358.7ZM17.1,469.3a94,94,0,0,1,93.8-94h.2c.9,23.3,5.9,87.5,33.5,119.6H17.1Zm392.5,8.6a17.1,17.1,0,0,1-34.1,0V358.4h34.1Zm-8.5-136.6H384V323.8c2.8.2,5.6.5,8.5.5s5.7-.3,8.6-.5Zm-8.6-34.1A102.4,102.4,0,1,1,494.9,204.8,102.4,102.4,0,0,1,392.5,307.2Z"></path><path
                        d="M392.5,119.5a8.5,8.5,0,0,0,0,17,68.4,68.4,0,1,1-37.9,11.6,8.5,8.5,0,1,0-9.5-14.2h0a85.4,85.4,0,1,0,47.4-14.4Z"></path><path
                        d="M366.9,187.7a8.6,8.6,0,0,0,6.1-2.5l8.5-8.5a8.6,8.6,0,0,0-12.1-12.1l-8.5,8.6a8.5,8.5,0,0,0,6,14.5Z"></path><path
                        d="M369.4,236.4a8.5,8.5,0,0,0,12.1,0l51.2-51.2a8.4,8.4,0,0,0-.2-12,8.6,8.6,0,0,0-11.9,0l-51.2,51.2A8.5,8.5,0,0,0,369.4,236.4Z"></path></symbol>
<symbol id='elearning' xmlns="http://www.w3.org/2000/svg" viewBox="0 0 512 512"><title>elearning</title><path d="M478.8,0H96A33.3,33.3,0,0,0,62.7,33.2v67.9a7.5,7.5,0,0,0,15,0V33.2A18.3,18.3,0,0,1,96,15H478.8A18.3,18.3,0,0,1,497,33.2V288.4a18.3,18.3,0,0,1-11.7,17.1A20.6,20.6,0,0,0,467,294.8h-8.6a21.1,21.1,0,0,0-12.9,4.3,21.1,21.1,0,0,0-12.9-4.3H424a21.1,21.1,0,0,0-12.9,4.3,21.1,21.1,0,0,0-12.9-4.3h-8.6a25,25,0,0,0-5.4.7v-8.1h84.7a8.9,8.9,0,0,0,8.9-9V43.2a8.9,8.9,0,0,0-8.9-8.9H116.8a8.9,8.9,0,0,0-8.9,8.9V266.6L79.9,297a18.3,18.3,0,0,1-2.2-8.6V131.9a7.5,7.5,0,0,0-15,0v48.4L11.6,259.6a72.9,72.9,0,0,0,1.1,80.6l32.5,47.6a43,43,0,0,1,7.5,22.7l2,53.4a7.5,7.5,0,0,0,7.5,7.2h.3a7.6,7.6,0,0,0,7.2-7.8l-2-53.4a57.5,57.5,0,0,0-10.1-30.5L25.1,331.7a57.8,57.8,0,0,1-.8-64L62.7,208v80.4a32.9,32.9,0,0,0,6.7,19.9l-5.1,5.6a7.6,7.6,0,0,0,.4,10.6,7.5,7.5,0,0,0,10.6-.5l78.8-85.4a10.1,10.1,0,0,1,16.3,11.8L123,335.9a16.5,16.5,0,0,0,1.7,18.5,42.9,42.9,0,0,1,7.4,41.2,69.4,69.4,0,0,0-3.8,20.6l-.9,39.2a7.6,7.6,0,0,0,7.3,7.7h.2a7.5,7.5,0,0,0,7.5-7.4l.9-39.1a53.9,53.9,0,0,1,2.9-16,58.1,58.1,0,0,0-9.9-55.7,1.5,1.5,0,0,1-.1-1.7l11.9-21.5H334.8v35.6L311,345.7a22.9,22.9,0,0,0-27.4,5.6,26.9,26.9,0,0,0,.3,35.8l45,48.7a23.4,23.4,0,0,1,5.9,15.8v52.9a7.5,7.5,0,0,0,15,0V451.6a38.1,38.1,0,0,0-9.9-26l-45-48.7a12.1,12.1,0,0,1-.1-15.6,8,8,0,0,1,9.6-2.1L339.1,376a7.4,7.4,0,0,0,10.7-6.7V241c0-6.3,4.4-11.5,9.7-11.5s9.7,5.2,9.7,11.5V369.3a7.5,7.5,0,0,0,15,0V313.8c0-2.1,2.5-4,5.4-4h8.6c3,0,5.4,1.9,5.4,4v55.5a7.5,7.5,0,1,0,15,0V313.8c0-2.1,2.5-4,5.4-4h8.6c2.9,0,5.4,1.9,5.4,4v55.5a7.5,7.5,0,0,0,15,0V313.8c0-2.1,2.5-4,5.4-4H467c2.9,0,5.4,1.9,5.4,4v55.5a9.3,9.3,0,0,0,.4,2.4l7.1,20.5a37.2,37.2,0,0,1,1.8,15.2,7.6,7.6,0,0,0,6.9,8.1h.6a7.5,7.5,0,0,0,7.5-6.9,52.3,52.3,0,0,0-2.6-21.2L487.4,368V320.5A33.2,33.2,0,0,0,512,288.4V33.2A33.2,33.2,0,0,0,478.8,0ZM156.4,306.7,167,287.4H334.8v19.3Zm203.1-92.2c-13.1,0-23.9,11.1-24.6,25.1H310.8a5.4,5.4,0,0,1-5.4-5.4V201.9a5.4,5.4,0,0,1,5.4-5.4h33.7a7.5,7.5,0,0,0,0-15H310.8a20.4,20.4,0,0,0-20.4,20.4v32.3a20.5,20.5,0,0,0,20.4,20.4h24v17.8H175.3l8.2-14.8a25.1,25.1,0,0,0-40.4-29.2l-20.2,21.9V49.3H462.8V272.4H384.2V254.6h27.3a20.4,20.4,0,0,0,20.3-20.4V201.9a20.3,20.3,0,0,0-20.3-20.4h-37a7.5,7.5,0,0,0,0,15h37a5.4,5.4,0,0,1,5.3,5.4v32.3a5.4,5.4,0,0,1-5.3,5.4H384.2c-.7-14-11.5-25.1-24.7-25.1Z"></path><path d="M100.5,166.9V154.7a7.5,7.5,0,0,0-15,0v12.2a7.5,7.5,0,0,0,15,0Z"></path><path d="M481.1,430.2a7.4,7.4,0,0,0-10.3,2.4l-9.2,14.6a42.1,42.1,0,0,0-6.4,22.5v34.8a7.5,7.5,0,0,0,15,0V469.7a27.2,27.2,0,0,1,4.1-14.5l9.2-14.7a7.5,7.5,0,0,0-2.4-10.3Z"></path><path d="M305.8,105.8,226.2,62a9.6,9.6,0,0,0-9,0l-79.6,43.8a9.4,9.4,0,0,0-4.8,8.2,9.1,9.1,0,0,0,4.8,8.1l24.7,13.6v52a15.4,15.4,0,0,0,9.6,14.4c33,13.9,66.6,13.9,99.6,0a15.4,15.4,0,0,0,9.6-14.4v-52l24.7-13.6a9.1,9.1,0,0,0,4.8-8.1,9.4,9.4,0,0,0-4.8-8.2Zm-39.7,81.9a.5.5,0,0,1-.4.6c-29.6,12.4-58.4,12.4-88,0a.5.5,0,0,1-.4-.6V143.9l39.9,22a9,9,0,0,0,9,0l18.7-10.3v16.2a7.5,7.5,0,1,0,15,0V147.4l6.2-3.4v43.7Zm-12.5-54-26.8-25.2a7.5,7.5,0,0,0-10.6.3,7.5,7.5,0,0,0,.4,10.6l23.2,21.9-18.1,10L153.9,114l67.8-37.3L289.5,114Z"></path><path d="M337.8,114.4h56.1a7.5,7.5,0,0,0,0-15H337.8a7.5,7.5,0,0,0,0,15Z"></path><path d="M441.4,141.3a7.5,7.5,0,0,0-7.5-7.5H337.8a7.5,7.5,0,0,0,0,15h96.1A7.5,7.5,0,0,0,441.4,141.3Z"></path></symbol>
<symbol id='shipping' xmlns="http://www.w3.org/2000/svg" viewBox="0 0 512 512"><title>shipping (1)</title><path d="M256,0A256.3,256.3,0,0,0,93,58.6a7.5,7.5,0,1,0,9.6,11.5A241.7,241.7,0,0,1,236.9,15.8L204.8,53.3a47.8,47.8,0,0,0-11.6,31.2v25.8a33.2,33.2,0,0,1-12.1,25.6,43.2,43.2,0,0,0-6.1,6,48.9,48.9,0,0,0-71.1,43.5c0,29.8,31.5,72.3,41.2,84.6a9.6,9.6,0,0,0,15.1,0,297.4,297.4,0,0,0,25.6-38.1A132.1,132.1,0,0,0,210.4,259a7.5,7.5,0,0,0,2.2,14.7H224a8,8,0,0,0,3.8-1,13.7,13.7,0,0,1-3.6,20.9,125.5,125.5,0,0,0-39.1,35.2l-10,13.9a7.5,7.5,0,0,0,1.7,10.5,7.4,7.4,0,0,0,10.4-1.7l10.1-13.9a109.8,109.8,0,0,1,34.4-31,28.7,28.7,0,0,0,14.4-23.2,30,30,0,0,0-1.3-10.4,6.7,6.7,0,0,0,3.1.7,30.2,30.2,0,0,1,9,1.4,7.5,7.5,0,0,0,4.6-14.3,45.4,45.4,0,0,0-13.6-2.1,7.4,7.4,0,0,0-7.3,5.9,28.4,28.4,0,0,0-6-6l-10.1-7.5a118.7,118.7,0,0,1-30.9-34.9c4.7-10.6,7.9-21.4,7.9-30.8a48.8,48.8,0,0,0-14.4-34.6,38.9,38.9,0,0,1,3.6-3.4,47.9,47.9,0,0,0,17.5-37.1V84.5a32.9,32.9,0,0,1,8-21.5l41.1-48A240.3,240.3,0,0,1,395.6,59.6L393,66.3a92.8,92.8,0,0,1-35.2,44.2,20.3,20.3,0,0,0-8.7,14.3,19.6,19.6,0,0,0,5.2,15.9l1.7,1.8A59,59,0,0,1,368,204a22.4,22.4,0,0,0,2,20,22.1,22.1,0,0,0,8.3,7.8,48.5,48.5,0,0,0-9.2,28.5,7.5,7.5,0,1,0,15,0,33.8,33.8,0,0,1,67.6,0c0,18.3-17.4,47.9-33.8,69.9-8.7-11.7-17.9-25.6-24.4-38.8a7.5,7.5,0,0,0-14.1,4.3,30.1,30.1,0,0,1-9.8-2.5L359,288.5a28.3,28.3,0,0,0-35.8,11.1l-11.4,18.7a51,51,0,0,0-6.3,16.3,7.4,7.4,0,0,0-.9,8.1,48.6,48.6,0,0,0,15.1,36.6l13.2,12.9A12.7,12.7,0,0,1,331,412a54.6,54.6,0,0,0-24.6,39.8,32,32,0,0,1-7.2,17l-23,27.4a245.9,245.9,0,0,1-71.1-4.6V478.9A32.8,32.8,0,0,0,186,449.2l-34.8-16a33.6,33.6,0,0,0-26.2-.5l-22.2,9.2A241.1,241.1,0,0,1,21.2,201.5a103.5,103.5,0,0,0,45.4-13l6.9-3.9h.3l-5.7,21.5a63.8,63.8,0,0,0,9.8,53.5l13.9,19.4A20.5,20.5,0,0,1,94.6,297l-4,12.8A73.9,73.9,0,0,0,126.3,397a26.2,26.2,0,0,0,33.6-7.7l6.5-9a7.5,7.5,0,0,0-12.2-8.8l-6.5,9a11.2,11.2,0,0,1-14.3,3.3,59.1,59.1,0,0,1-28.5-69.6l4-12.7a35.6,35.6,0,0,0-4.9-31L90.1,251.1a49,49,0,0,1-7.5-41l5.7-21.5a15.2,15.2,0,0,0-5.4-15.8,15,15,0,0,0-16.7-1.3l-6.9,3.9a87.3,87.3,0,0,1-34,10.7A241.7,241.7,0,0,1,77.7,93.8a7.5,7.5,0,0,0-.5-10.6,7.7,7.7,0,0,0-10.6.5A255.9,255.9,0,0,0,0,256C0,397.5,114.5,512,256,512S512,397.5,512,256,397.5,0,256,0ZM152.7,255.2c-16.5-22-33.8-51.5-33.8-69.8a33.8,33.8,0,0,1,67.6,0c0,18.3-17.4,47.8-33.8,69.8ZM130.8,446.6a17.3,17.3,0,0,1,14.1.3l34.9,15.9a17.9,17.9,0,0,1,10.3,16.1v8.9a239.1,239.1,0,0,1-73.5-35.3ZM487.3,323.8l-33.1-23c7.1-13.6,12.5-28.1,12.5-40.5,0-1.2-.1-2.3-.2-3.5l8.6,5.6,21,14.9a237.4,237.4,0,0,1-8.8,46.5ZM298.2,493.3l12.5-14.9a46.8,46.8,0,0,0,10.6-24.9,39.4,39.4,0,0,1,17.8-28.9,27.7,27.7,0,0,0,4.3-43.2l-13.3-12.9a33.7,33.7,0,0,1-10.2-19.9h2.7a7.6,7.6,0,0,0,7.5-7.5,7.5,7.5,0,0,0-7.5-7.5h-1.4a36,36,0,0,1,3.4-7.5l11.5-18.7a13.1,13.1,0,0,1,16.8-5.2l10.5,4.7a43.7,43.7,0,0,0,23.4,3.5A315.4,315.4,0,0,0,410.3,345a9.6,9.6,0,0,0,15.1,0,331.5,331.5,0,0,0,21.5-31l35.5,24.7c-29.1,79.5-99,139.5-184.2,154.6ZM497,259.6l-13.3-9.4a170,170,0,0,0-23.3-13.8,48.9,48.9,0,0,0-42.5-24.9,48.4,48.4,0,0,0-27.1,8.2l-2.3-.2a7.4,7.4,0,0,1-6.4-10.1A74.1,74.1,0,0,0,367,132.3l-1.7-1.8a5,5,0,0,1-1.3-3.9,4.8,4.8,0,0,1,2.2-3.6A107.4,107.4,0,0,0,407,71.7l1-2.6A240.7,240.7,0,0,1,497,259.6Z"></path><path d="M152.7,161.6a23.8,23.8,0,1,0,23.7,23.8,23.8,23.8,0,0,0-23.7-23.8Zm0,32.5a8.8,8.8,0,1,1,8.7-8.7A8.7,8.7,0,0,1,152.7,194.1Z"></path><path d="M441.6,260.3A23.7,23.7,0,1,0,417.9,284,23.8,23.8,0,0,0,441.6,260.3Zm-32.4,0a8.7,8.7,0,1,1,8.7,8.7A8.7,8.7,0,0,1,409.2,260.3Z"></path><path d="M188.7,273.7a7.5,7.5,0,0,0,0-15h-6a7.5,7.5,0,0,0,0,15Z"></path><path d="M284.3,277.3a7.5,7.5,0,0,0-10.5-1.6,7.4,7.4,0,0,0-1.7,10.4,31.2,31.2,0,0,1,4.2,8.1,7.5,7.5,0,1,0,14.2-4.7A45.3,45.3,0,0,0,284.3,277.3Z"></path><path d="M284.8,308.2a7.6,7.6,0,0,0-4.8,9.5,42.6,42.6,0,0,0,6.2,12.2,7.5,7.5,0,0,0,10.5,1.7,7.4,7.4,0,0,0,1.7-10.4,28.7,28.7,0,0,1-4.1-8.2A7.7,7.7,0,0,0,284.8,308.2Z"></path><path d="M357.9,333.7H346.4a7.5,7.5,0,0,0,0,15h11.5a7.5,7.5,0,0,0,0-15Z"></path><path d="M387.9,333.7h-6a7.5,7.5,0,0,0,0,15h6a7.5,7.5,0,0,0,0-15Z"></path></symbol>
<symbol id='analysis' xmlns="http://www.w3.org/2000/svg" viewBox="0 0 512 512"><title>analysis</title><path d="M326.6,133.1a25,25,0,1,0-20-10l-41,57.4a25.5,25.5,0,0,0-7.8-1.3,24.9,24.9,0,0,0-17,6.7l-27.4-15.5a23.3,23.3,0,0,0,.6-5.3,25,25,0,0,0-50,0,23.2,23.2,0,0,0,.5,5.3l-27.4,15.5a25,25,0,1,0,8,18.3,29.6,29.6,0,0,0-.5-5.2l27.3-15.6a25,25,0,0,0,34.1,0L233.3,199a29.6,29.6,0,0,0-.5,5.2,25,25,0,1,0,45-15l41-57.4A25.5,25.5,0,0,0,326.6,133.1Zm0-35a10,10,0,1,1-10,10A10,10,0,0,1,326.6,98.1ZM120.1,214.2a10,10,0,1,1,10-10A10,10,0,0,1,120.1,214.2ZM189,175.1a10,10,0,0,1,0-20,10,10,0,0,1,0,20Zm68.8,39.1a10,10,0,1,1,10-10A10,10,0,0,1,257.8,214.2Z"></path><path d="M418.8,377H21.2a6.2,6.2,0,0,1-6.2-6.2V61.3a6.2,6.2,0,0,1,6.2-6.2H56.6a7.5,7.5,0,0,0,0-15H21.2A21.2,21.2,0,0,0,0,61.3V370.8A21.3,21.3,0,0,0,21.2,392H72.9v16.5a17.1,17.1,0,0,0,17.1,17h75.1l-35.4,69a7.5,7.5,0,0,0,3.3,10.1,6.8,6.8,0,0,0,3.4.8,7.5,7.5,0,0,0,6.7-4l38.8-75.9h82.9l38.9,75.9a7.3,7.3,0,0,0,6.7,4,7.1,7.1,0,0,0,3.4-.8,7.5,7.5,0,0,0,3.2-10.1l-35.3-69h75.1a17,17,0,0,0,17-17V392h45a7.5,7.5,0,0,0,0-15Zm-60,31.5a2,2,0,0,1-2,2H90a2,2,0,0,1-2.1-2V392H358.8Z"></path><path d="M86.6,55.1H425.5a6.2,6.2,0,0,1,6.2,6.2v71.3a7.5,7.5,0,0,0,15,0V61.3a21.2,21.2,0,0,0-21.2-21.2H265V25.4A18.8,18.8,0,0,0,246.2,6.6H200.6a18.9,18.9,0,0,0-18.9,18.8V40.1H86.6a7.5,7.5,0,0,0,0,15ZM196.7,25.4a3.9,3.9,0,0,1,3.9-3.8h45.6a3.8,3.8,0,0,1,3.8,3.8V40.1H196.7V25.4Z"></path><path d="M104.9,267.6a7.5,7.5,0,0,0-7.5,7.5v66.2a7.5,7.5,0,0,0,7.5,7.5h30.4a7.4,7.4,0,0,0,7.5-7.5V275.1a7.4,7.4,0,0,0-7.5-7.5Zm22.9,66.2H112.4V282.6h15.4Z"></path><path d="M173.7,229.2a7.6,7.6,0,0,0-7.5,7.5V341.3a7.5,7.5,0,0,0,7.5,7.5h30.5a7.5,7.5,0,0,0,7.5-7.5V236.7a7.6,7.6,0,0,0-7.5-7.5Zm23,104.6H181.2V244.2h15.5Z"></path><path d="M242.6,267.6a7.4,7.4,0,0,0-7.5,7.5v66.2a7.4,7.4,0,0,0,7.5,7.5H273a7.5,7.5,0,0,0,7.5-7.5V275.1a7.5,7.5,0,0,0-7.5-7.5Zm22.9,66.2H250.1V282.6h15.4Z"></path><path d="M311.4,311.8a7.6,7.6,0,0,0-7.5,7.5v22a7.5,7.5,0,0,0,7.5,7.5h30.4a7.5,7.5,0,0,0,0-15H318.9V319.3A7.5,7.5,0,0,0,311.4,311.8Z"></path><path d="M508.2,384l-43.1-74.5a98,98,0,0,0,13.3-116A98,98,0,1,0,368.2,337.2a101,101,0,0,0,25.5,3.4,97.4,97.4,0,0,0,22.1-2.6l43,74.5a28.5,28.5,0,0,0,24.7,14.3A28.6,28.6,0,0,0,508.2,384ZM372.1,322.7a82.9,82.9,0,1,1,63-8.3A82.7,82.7,0,0,1,372.1,322.7ZM490.2,410a13.5,13.5,0,0,1-18.4-5l-41.4-71.7a93,93,0,0,0,23.4-13.5l41.4,71.7a13.6,13.6,0,0,1-5,18.5Z"></path><path d="M461.5,263.6a70.8,70.8,0,0,0-3.5-51.4,7.4,7.4,0,0,0-10-3.6,7.6,7.6,0,0,0-3.6,10,56.2,56.2,0,1,1-16.9-20.9,7.5,7.5,0,1,0,9-12,71.2,71.2,0,1,0-61.4,125.6,73.6,73.6,0,0,0,18.6,2.4,71.4,71.4,0,0,0,67.8-50.1Z"></path></symbol>
<symbol id='skills' xmlns="http://www.w3.org/2000/svg" viewBox="0 0 512 512"><title>skills (1)</title><path d="M273.2,292.3l15.7-26.4-42.8-42.8-26.4,15.7a139.9,139.9,0,0,0-21.9-9L190.2,200H129.8l-7.6,29.8a131.3,131.3,0,0,0-21.9,9.1L73.9,223.2,31.1,265.9l15.7,26.4a139.9,139.9,0,0,0-9,21.9L8,321.8v60.4l29.8,7.6a131.3,131.3,0,0,0,9.1,21.9L31.2,438.1l42.7,42.8,26.4-15.7a139.9,139.9,0,0,0,21.9,9l7.6,29.8h60.4l7.6-29.8a131.3,131.3,0,0,0,21.9-9.1l26.4,15.7,42.8-42.7-15.7-26.4a139.9,139.9,0,0,0,9-21.9l29.8-7.6V321.8l-29.8-7.6A139.9,139.9,0,0,0,273.2,292.3ZM296,369.8l-26.8,6.8-1.2,4.5a109.7,109.7,0,0,1-11,26.7l-2.3,4.1,14,23.7-25.1,25.2-23.7-14.1-4.1,2.3a109.7,109.7,0,0,1-26.7,11l-4.5,1.3L177.8,488H142.2l-6.8-26.8-4.5-1.2a109.7,109.7,0,0,1-26.7-11l-4.1-2.3-23.7,14L51.3,435.6l14-23.7L63,407.8a109.7,109.7,0,0,1-11-26.7l-1.2-4.5L24,369.8V334.2l26.8-6.8,1.2-4.5a109.7,109.7,0,0,1,11-26.7l2.3-4.1-14-23.7,25.1-25.1,23.7,14,4.1-2.3a109.7,109.7,0,0,1,26.7-11l4.5-1.2,6.8-26.8h35.6l6.8,26.8,4.5,1.2a109.7,109.7,0,0,1,26.7,11l4.1,2.3,23.7-14,25.1,25.1-14,23.7,2.3,4.1a109.7,109.7,0,0,1,11,26.7l1.2,4.5,26.8,6.8Z"></path><path d="M160,256a96,96,0,1,0,96,96A96.2,96.2,0,0,0,160,256Zm0,176a80,80,0,1,1,80-80A80.1,80.1,0,0,1,160,432Z"></path><path d="M160,304a48,48,0,1,0,48,48A48,48,0,0,0,160,304Zm0,80a32,32,0,1,1,32-32A32.1,32.1,0,0,1,160,384Z"></path><path d="M480,72H288a24.1,24.1,0,0,0-24,24V208a24.1,24.1,0,0,0,24,24h16v36.9L377.9,232H480a24.1,24.1,0,0,0,24-24V96A24.1,24.1,0,0,0,480,72Zm8,136a8,8,0,0,1-8,8H374.1L320,243.1V216H288a8,8,0,0,1-8-8V96a8,8,0,0,1,8-8H480a8,8,0,0,1,8,8Z"></path><path d="M32,152h77.8L160,182.1V152h64a24.1,24.1,0,0,0,24-24V32A24.1,24.1,0,0,0,224,8H32A24.1,24.1,0,0,0,8,32v96A24.1,24.1,0,0,0,32,152ZM24,32a8,8,0,0,1,8-8H224a8,8,0,0,1,8,8v96a8,8,0,0,1-8,8H144v17.9L114.2,136H32a8,8,0,0,1-8-8Z"></path><path d="M456,184H440V120H424v64H408V104H392v80H376V136H360v48H344V152H328v32H312v16H472V104H456Z"></path><path d="M64,104A24,24,0,1,0,40,80,24.1,24.1,0,0,0,64,104Zm0-32a8,8,0,1,1-8,8A8,8,0,0,1,64,72Z"></path><path d="M128,104a24,24,0,1,0-24-24A24.1,24.1,0,0,0,128,104Zm0-32a8,8,0,1,1-8,8A8,8,0,0,1,128,72Z"></path><path d="M192,104a24,24,0,1,0-24-24A24.1,24.1,0,0,0,192,104Zm0-32a8,8,0,1,1-8,8A8,8,0,0,1,192,72Z"></path><path d="M416,328a87.4,87.4,0,0,0-44.5,12.2l-48.2-5.8,16.2,38.3A87.9,87.9,0,1,0,416,328ZM370.8,472h90.4a71.8,71.8,0,0,1-90.4,0Zm34.6-52.2A15.6,15.6,0,0,1,400,408V393.4c0-9.2,6.8-16.9,15.1-17.4A16.1,16.1,0,0,1,432,392v16a15.6,15.6,0,0,1-5.4,11.8l-2.6,2.4v14.7L446.1,448a17.7,17.7,0,0,1,8,8H377.9a17.7,17.7,0,0,1,8-8L408,436.9V422.2Zm66.4,41.6a33.7,33.7,0,0,0-18.5-27.7l-12.1-6.1A31.7,31.7,0,0,0,448,408V392a32.1,32.1,0,0,0-33.7-32c-17,.9-30.3,15.6-30.3,33.4V408a31.7,31.7,0,0,0,6.8,19.6l-12.1,6.1a33.7,33.7,0,0,0-18.5,27.7,71.6,71.6,0,0,1-5-83.8l2.2-3.6-8.7-20.4,26.5,3.1,2.4-1.5a71.9,71.9,0,0,1,94.2,106.2Z"></path></symbol>
                </svg>